<svg width="24" height="24" viewBox="0 0 24 24" fill="none" xmlns="http://www.w3.org/2000/svg">
<g clip-path="url(#clip0_3750_5306)">
<path d="M11.5 24C11.499 24 11.498 24 11.497 24C11.221 23.998 10.998 23.772 11 23.497C11.001 23.349 11.027 19.866 11.123 18.94C11.253 17.696 11.901 16.749 12.948 16.274C14.602 15.523 16.594 16.378 17.578 18.26C18.002 19.071 18.107 19.959 17.888 20.901C17.768 21.416 17.64 21.808 17.484 22.136C17.148 22.844 16.992 23.593 16.99 23.6C16.935 23.871 16.668 24.043 16.4 23.99C16.129 23.935 15.955 23.671 16.01 23.401C16.017 23.365 16.19 22.528 16.58 21.707C16.704 21.446 16.81 21.118 16.913 20.674C17.078 19.963 17.006 19.325 16.691 18.724C15.956 17.318 14.524 16.658 13.359 17.184C12.639 17.511 12.209 18.154 12.116 19.043C12.026 19.921 12 23.468 12 23.503C11.998 23.778 11.774 24 11.5 24Z" fill="#040A16"/>
<path d="M19.0092 17.0001C18.4552 17.0001 17.9342 16.7031 17.6012 16.1921C16.7932 14.9531 16.7992 13.0171 17.6142 11.7841C17.9472 11.2801 18.4462 10.9741 19.0342 11.0001C19.5922 11.0131 20.0892 11.3191 20.3972 11.8391C21.1992 13.1871 21.2052 14.5391 20.4172 16.0931C20.1462 16.6291 19.6502 16.9671 19.0932 16.9971C19.0652 17.0001 19.0372 17.0001 19.0092 17.0001ZM18.9982 12.0001C18.7902 12.0001 18.5902 12.1221 18.4492 12.3361C17.8582 13.2311 17.8542 14.7471 18.4402 15.6461C18.5922 15.8791 18.8302 16.0111 19.0402 15.9991C19.2422 15.9881 19.4152 15.8611 19.5262 15.6411C20.1532 14.4041 20.1572 13.3901 19.5392 12.3491C19.4082 12.1281 19.2202 12.0041 19.0112 11.9991C19.0062 12.0001 19.0012 12.0001 18.9982 12.0001Z" fill="#040A16"/>
<path d="M8.49972 24C8.22372 24 7.99972 23.776 7.99972 23.5V21.379C7.99972 18.672 7.03972 16.042 5.29572 13.972L0.116719 7.82205C-0.0612811 7.61105 -0.0342811 7.29505 0.176719 7.11705C0.387719 6.93805 0.703719 6.96705 0.881719 7.17705L6.06072 13.327C7.95572 15.578 8.99972 18.438 8.99972 21.379V23.5C8.99972 23.776 8.77572 24 8.49972 24Z" fill="#040A16"/>
<path d="M22.0442 24C22.0192 24 21.9942 23.998 21.9692 23.994C21.6962 23.953 21.5082 23.698 21.5502 23.425L22.9102 14.449C23.3522 11.529 22.1202 8.55304 19.6952 6.68104L12.1952 0.895042C11.9772 0.726042 11.9362 0.412042 12.1052 0.193042C12.2732 -0.0249583 12.5862 -0.0659583 12.8072 0.103042L20.3072 5.88904C23.0202 7.98204 24.3972 11.32 23.9002 14.598L22.5402 23.574C22.5012 23.823 22.2882 24 22.0442 24Z" fill="#040A16"/>
<path d="M10.9992 15C10.3712 15 9.76225 14.807 9.24425 14.433C8.46525 13.869 8.00025 12.959 8.00025 12C8.00025 11.676 8.05125 11.357 8.15325 11.051C8.33925 10.49 8.23925 9.94598 7.88825 9.59498L0.14625 1.85398C-0.04875 1.65898 -0.04875 1.34198 0.14625 1.14698C0.34125 0.951982 0.65825 0.951982 0.85325 1.14698L8.59525 8.88898C9.21925 9.51298 9.40925 10.439 9.10225 11.367C9.03425 11.57 9.00025 11.784 9.00025 12C9.00025 12.64 9.31025 13.246 9.83025 13.622C10.3602 14.005 11.0382 14.101 11.6873 13.887C12.4893 13.623 13.0402 12.783 12.9972 11.892C12.9913 11.771 12.9753 11.663 12.9482 11.564C12.9002 11.39 12.9493 11.204 13.0763 11.077C13.2032 10.949 13.3872 10.899 13.5632 10.949C13.6892 10.983 13.8322 11 14.0002 11C14.6252 11 15.2043 10.715 15.5863 10.218C15.9693 9.72098 16.0933 9.07498 15.9272 8.44698C15.7633 7.82798 15.2922 7.31898 14.6962 7.11698C14.2292 6.95798 13.7502 6.95898 13.3082 7.12098C12.4532 7.43398 11.5552 7.26098 10.9662 6.67198L5.14625 0.853982C4.95125 0.658982 4.95125 0.341982 5.14625 0.146982C5.34125 -0.0480176 5.65825 -0.0480176 5.85325 0.146982L11.6722 5.96598C11.9872 6.28098 12.4712 6.36298 12.9642 6.18298C13.6222 5.94198 14.3322 5.93698 15.0162 6.17098C15.9253 6.47998 16.6443 7.25398 16.8923 8.19198C17.1383 9.12298 16.9503 10.083 16.3773 10.828C15.8053 11.573 14.9382 12 14.0002 12C13.9943 13.273 13.1733 14.45 12.0013 14.836C11.6693 14.946 11.3312 15 10.9992 15Z" fill="#040A16"/>
</g>
<defs>
<clipPath id="clip0_3750_5306">
<rect width="24" height="24" fill="white"/>
</clipPath>
</defs>
</svg>
