<svg width="24" height="24" viewBox="0 0 24 24" fill="none" xmlns="http://www.w3.org/2000/svg">
<path d="M23.25 12.9375H17.8125V8.25C17.8125 5.04492 13.8589 2.4375 9 2.4375C4.14111 2.4375 0.1875 5.04492 0.1875 8.25V15.75C0.1875 18.9551 4.14111 21.5625 9 21.5625H23.25C23.5605 21.5625 23.8125 21.3105 23.8125 21V13.5C23.8125 13.1895 23.5605 12.9375 23.25 12.9375ZM16.6875 12.9375H14.1891C15.2094 12.4447 16.0657 11.8141 16.6875 11.0832V12.9375ZM9 3.5625C13.2393 3.5625 16.6875 5.66528 16.6875 8.25C16.6875 10.8347 13.2393 12.9375 9 12.9375C4.76074 12.9375 1.3125 10.8347 1.3125 8.25C1.3125 5.66528 4.76074 3.5625 9 3.5625ZM1.3125 15.75V11.0832C2.82266 12.8585 5.70062 14.0625 9 14.0625H22.6875V20.4375H20.8125V19.5C20.8125 19.1895 20.5605 18.9375 20.25 18.9375C19.9395 18.9375 19.6875 19.1895 19.6875 19.5V20.4375H17.8125V18C17.8125 17.6895 17.5605 17.4375 17.25 17.4375C16.9395 17.4375 16.6875 17.6895 16.6875 18V20.4375H14.8125V19.5C14.8125 19.1895 14.5605 18.9375 14.25 18.9375C13.9395 18.9375 13.6875 19.1895 13.6875 19.5V20.4375H11.8125V18C11.8125 17.6895 11.5605 17.4375 11.25 17.4375C10.9395 17.4375 10.6875 17.6895 10.6875 18V20.4375H9C8.93582 20.4375 8.87631 20.4269 8.8125 20.426V19.5C8.8125 19.1895 8.56055 18.9375 8.25 18.9375C7.93945 18.9375 7.6875 19.1895 7.6875 19.5V20.3566C7.02896 20.2869 6.40256 20.1682 5.8125 20.003V17.4294C5.8125 17.1189 5.56055 16.8669 5.25 16.8669C4.93945 16.8669 4.6875 17.1189 4.6875 17.4294V19.6272C2.65274 18.783 1.3125 17.3606 1.3125 15.75Z" fill="black"/>
<path d="M9 10.875C11.4185 10.875 13.3125 9.72217 13.3125 8.25C13.3125 6.77783 11.4185 5.625 9 5.625C6.58154 5.625 4.6875 6.77783 4.6875 8.25C4.6875 9.72217 6.58154 10.875 9 10.875ZM9 6.75C10.8245 6.75 12.1875 7.54175 12.1875 8.25C12.1875 8.95825 10.8245 9.75 9 9.75C7.17554 9.75 5.8125 8.95825 5.8125 8.25C5.8125 7.54175 7.17554 6.75 9 6.75Z" fill="black"/>
</svg>
