<svg width="24" height="24" viewBox="0 0 24 24" fill="none" xmlns="http://www.w3.org/2000/svg">
<g clip-path="url(#clip0_3750_5272)">
<path d="M13.9788 22.2584L13.0375 21.3171C12.8544 21.1341 12.5577 21.1341 12.3745 21.3171C12.1915 21.5002 12.1915 21.797 12.3745 21.9801L12.5156 22.1212H11.0587C5.47781 22.1212 0.9375 17.5808 0.9375 12C0.9375 11.7412 0.727641 11.5312 0.46875 11.5312C0.209859 11.5312 0 11.7412 0 12C0 18.1118 4.94606 23.0587 11.0587 23.0587H12.5157L12.3745 23.1998C12.1915 23.3828 12.1915 23.6797 12.3745 23.8627C12.5577 24.0458 12.8544 24.0458 13.0375 23.8627C13.2509 23.6492 13.956 22.9447 13.9846 22.9149C14.1649 22.728 14.1558 22.4342 13.9788 22.2584Z" fill="black"/>
<path d="M12.9411 0.941344H11.4841L11.6252 0.800203C11.8083 0.617156 11.8083 0.320344 11.6252 0.13725C11.4422 -0.04575 11.1454 -0.04575 10.9623 0.13725C10.735 0.364641 10.0431 1.05581 10.0126 1.08778C9.83396 1.27603 9.84521 1.56577 10.0209 1.7415L10.9623 2.6828C11.0538 2.7743 11.1738 2.82009 11.2937 2.82009C11.7076 2.82009 11.9214 2.316 11.6252 2.01989L11.4841 1.8788H12.941C18.5219 1.87884 23.0622 6.41916 23.0622 12C23.0622 12.2589 23.2721 12.4688 23.531 12.4688C23.7898 12.4688 23.9997 12.2588 23.9997 12C23.9997 5.88802 19.0535 0.941344 12.9411 0.941344Z" fill="black"/>
<path d="M6.09355 18.0652H5.64609C5.38724 18.0652 5.17734 18.2751 5.17734 18.5339C5.17734 18.7928 5.38724 19.0027 5.64609 19.0027C7.34577 19.0018 7.24705 19.0073 7.31685 18.9936C7.53262 18.9509 7.69415 18.7597 7.69401 18.5337V16.9419C7.69401 16.6831 7.48415 16.4732 7.22526 16.4732C6.96641 16.4732 6.75651 16.6831 6.75651 16.9419V17.4022L6.17451 16.8202C3.23948 13.8852 3.23948 9.1095 6.17451 6.17447C6.35755 5.99142 6.35755 5.69461 6.17451 5.51152C5.99141 5.32852 5.6947 5.32852 5.51155 5.51152C2.21099 8.81213 2.21099 14.1825 5.51155 17.4831L6.09355 18.0652Z" fill="black"/>
<path d="M18.7255 7.10132H19.1729C19.4318 7.10132 19.6417 6.89141 19.6417 6.63257C19.6417 6.37368 19.4318 6.16382 19.1729 6.16382H17.5938C17.3323 6.16382 17.1248 6.37762 17.125 6.6328V8.22449C17.125 8.48338 17.3349 8.69324 17.5938 8.69324C17.8526 8.69324 18.0625 8.48338 18.0625 8.22449V7.76427L18.6445 8.34622C21.5862 11.2879 21.5867 16.0498 18.6445 18.992C18.4614 19.175 18.4614 19.4718 18.6445 19.6549C18.736 19.7464 18.856 19.7922 18.9759 19.7922C19.0959 19.7922 19.2158 19.7464 19.3074 19.6549C22.6155 16.3468 22.616 10.9919 19.3074 7.68327L18.7255 7.10132Z" fill="black"/>
<path d="M17.3189 12.9924C17.6755 11.0711 16.9765 9.12794 15.4906 7.86996C15.8097 7.5274 15.9982 7.07112 15.9982 6.58755C15.9982 5.55049 15.1545 4.70679 14.1175 4.70679C13.0921 4.70679 12.2349 5.53783 12.2369 6.59491C11.8236 6.57696 11.4157 6.60494 11.0072 6.68079C10.7496 6.33972 10.3409 6.1188 9.88152 6.1188C8.97252 6.1188 8.29377 6.97333 8.51207 7.86424C7.04938 9.1001 6.31968 11.0504 6.68015 12.9924C6.33909 13.25 6.11816 13.6587 6.11816 14.1181C6.11816 15.0289 6.97424 15.7053 7.86332 15.4877C8.41569 16.1436 9.10668 16.654 9.89259 16.9851C9.77943 18.2335 10.7662 19.2935 11.9995 19.2935C13.2333 19.2935 14.2194 18.233 14.1064 16.985C14.8923 16.654 15.5832 16.1435 16.1354 15.4876C17.0255 15.7056 17.8808 15.0279 17.8808 14.1181C17.8809 13.6586 17.66 13.25 17.3189 12.9924ZM14.1175 5.64424C14.6376 5.64424 15.0607 6.06738 15.0607 6.58751C15.0607 6.8748 14.9284 7.14297 14.7111 7.31941C14.2422 7.04674 13.7288 6.84255 13.1847 6.72044C13.1028 6.13985 13.5556 5.64424 14.1175 5.64424ZM9.88152 7.05626C10.1421 7.05626 10.3541 7.26822 10.3541 7.5288C10.3541 7.78938 10.1421 8.00135 9.88152 8.00135C9.6209 8.00135 9.40893 7.78938 9.40893 7.5288C9.40893 7.26822 9.62094 7.05626 9.88152 7.05626ZM7.05566 14.1181C7.05566 13.8574 7.26763 13.6455 7.52821 13.6455C7.78879 13.6455 8.00076 13.8574 8.00076 14.1181C8.00076 14.3787 7.78874 14.5907 7.52821 14.5907C7.26768 14.5907 7.05566 14.3787 7.05566 14.1181ZM11.9995 18.3559C11.3497 18.3559 10.8209 17.8272 10.8209 17.1774C10.8209 16.5275 11.3496 15.9988 11.9995 15.9988C12.6494 15.9988 13.1781 16.5275 13.1781 17.1774C13.1781 17.8272 12.6494 18.3559 11.9995 18.3559ZM13.8137 16.0895C12.9915 14.7234 11.0125 14.7152 10.1854 16.0895C9.59962 15.8304 9.07959 15.4497 8.65288 14.9675C8.83185 14.7311 8.9383 14.4368 8.9383 14.1181C8.9383 13.3587 8.33488 12.738 7.5824 12.7093C7.33485 11.1555 7.92379 9.63874 9.03229 8.65347C9.26868 8.8324 9.56287 8.9388 9.88157 8.9388C10.6409 8.9388 11.2617 8.33538 11.2903 7.5829C14.2781 7.10702 16.8987 9.68454 16.4167 12.7093C15.6642 12.7378 15.0607 13.3587 15.0607 14.118C15.0607 14.4367 15.1671 14.7309 15.3461 14.9673C14.9194 15.4496 14.3994 15.8304 13.8137 16.0895ZM16.4708 14.5907C16.2102 14.5907 15.9982 14.3787 15.9982 14.1181C15.9982 13.8574 16.2102 13.6455 16.4708 13.6455C16.7315 13.6455 16.9434 13.8574 16.9434 14.1181C16.9434 14.3787 16.7314 14.5907 16.4708 14.5907Z" fill="black"/>
<path d="M11.9999 10.5898C11.2224 10.5898 10.5898 11.2224 10.5898 11.9999C10.5898 12.7775 11.2224 13.41 11.9999 13.41C12.7775 13.41 13.41 12.7775 13.41 11.9999C13.41 11.2224 12.7775 10.5898 11.9999 10.5898ZM11.9999 12.4725C11.7393 12.4725 11.5273 12.2606 11.5273 11.9999C11.5273 11.7393 11.7393 11.5273 11.9999 11.5273C12.2606 11.5273 12.4725 11.7393 12.4725 11.9999C12.4725 12.2605 12.2606 12.4725 11.9999 12.4725Z" fill="black"/>
</g>
<defs>
<clipPath id="clip0_3750_5272">
<rect width="24" height="24" fill="white"/>
</clipPath>
</defs>
</svg>
