<svg width="24" height="24" viewBox="0 0 24 24" fill="none" xmlns="http://www.w3.org/2000/svg">
<g clip-path="url(#clip0_3750_5253)">
<path d="M19.9998 17C19.7835 17.0025 19.5691 17.0407 19.3653 17.113L18.0723 14.5275L20.4223 10.765C20.4719 10.6855 20.4983 10.5937 20.4983 10.5C20.4983 10.4063 20.4719 10.3144 20.4223 10.235L18.0473 6.43497L18.8633 3.98497C18.9088 3.98797 18.9523 3.99847 18.9983 3.99847C19.4816 4.00075 19.9496 3.82871 20.3164 3.51391C20.6832 3.19911 20.9243 2.76263 20.9954 2.28451C21.0665 1.80639 20.9628 1.31867 20.7035 0.910772C20.4441 0.502871 20.0464 0.202127 19.5833 0.0636809C19.1202 -0.0747655 18.6226 -0.0416361 18.182 0.156995C17.7413 0.355626 17.387 0.706447 17.184 1.14514C16.981 1.58382 16.943 2.08098 17.0768 2.54545C17.2107 3.00992 17.5074 3.41058 17.9128 3.67397L17.1393 5.99997H13.4998C13.415 5.99997 13.3315 6.02154 13.2574 6.06265C13.1832 6.10376 13.1207 6.16306 13.0758 6.23497L10.7228 9.99997H7.26726L5.48526 7.32647C5.821 6.95588 6.00971 6.47535 6.01586 5.97532C6.02202 5.4753 5.84519 4.99027 5.51867 4.61153C5.19215 4.23278 4.73845 3.98645 4.24297 3.91889C3.74749 3.85134 3.24441 3.96721 2.82841 4.24471C2.41241 4.52221 2.11219 4.9422 1.98425 5.42561C1.85631 5.90903 1.90948 6.42255 2.13375 6.8695C2.35802 7.31645 2.73792 7.66601 3.20195 7.85239C3.66598 8.03877 4.18214 8.04911 4.65326 7.88147L6.40326 10.5085L4.07576 14.235C4.0261 14.3144 3.99976 14.4063 3.99976 14.5C3.99976 14.5937 4.0261 14.6855 4.07576 14.765L6.39426 18.4745L5.15926 20.1205C4.94789 20.0431 4.72485 20.0023 4.49976 20C4.03635 19.9951 3.58532 20.1495 3.22221 20.4375C2.85911 20.7255 2.60598 21.1295 2.50523 21.5819C2.40447 22.0342 2.4622 22.5075 2.66876 22.9223C2.87531 23.3372 3.21814 23.6685 3.63983 23.8607C4.06152 24.053 4.53645 24.0945 4.9851 23.9783C5.43374 23.8622 5.82885 23.5954 6.10424 23.2226C6.37964 22.8499 6.5186 22.3938 6.49785 21.9308C6.4771 21.4679 6.2979 21.0261 5.99026 20.6795L7.24976 19H10.9998C11.0846 19 11.168 18.9784 11.2421 18.9373C11.3163 18.8962 11.3788 18.8369 11.4238 18.765L13.7773 15H17.1908L18.5223 17.6635C18.2176 18.0037 18.0391 18.4382 18.0165 18.8944C17.9939 19.3505 18.1286 19.8005 18.3981 20.1692C18.6677 20.5379 19.0557 20.8028 19.4971 20.9196C19.9386 21.0365 20.4069 20.9981 20.8235 20.8111C21.2401 20.624 21.5798 20.2995 21.7858 19.8919C21.9918 19.4843 22.0515 19.0183 21.955 18.5719C21.8586 18.1255 21.6117 17.7258 21.2558 17.4397C20.8999 17.1535 20.4564 16.9983 19.9998 17ZM18.9998 0.999971C19.1975 0.999971 19.3909 1.05862 19.5553 1.1685C19.7198 1.27838 19.848 1.43456 19.9236 1.61729C19.9993 1.80001 20.0191 2.00108 19.9805 2.19506C19.942 2.38904 19.8467 2.56723 19.7069 2.70708C19.567 2.84693 19.3888 2.94217 19.1949 2.98076C19.0009 3.01934 18.7998 2.99954 18.6171 2.92385C18.4344 2.84816 18.2782 2.71999 18.1683 2.55554C18.0584 2.39109 17.9998 2.19775 17.9998 1.99997C17.9998 1.73475 18.1051 1.4804 18.2927 1.29286C18.4802 1.10533 18.7345 0.999971 18.9998 0.999971ZM13.7768 6.99997H17.2228L19.4103 10.5L17.2228 14H13.7773L11.5893 10.5L13.7768 6.99997ZM2.99976 5.99997C2.99976 5.80219 3.05841 5.60885 3.16829 5.4444C3.27817 5.27995 3.43435 5.15178 3.61708 5.07609C3.7998 5.0004 4.00087 4.9806 4.19485 5.01919C4.38883 5.05777 4.56702 5.15301 4.70687 5.29286C4.84672 5.43272 4.94196 5.6109 4.98055 5.80488C5.01913 5.99886 4.99933 6.19993 4.92364 6.38266C4.84795 6.56538 4.71978 6.72156 4.55533 6.83144C4.39088 6.94132 4.19754 6.99997 3.99976 6.99997C3.73455 6.99997 3.48019 6.89461 3.29265 6.70708C3.10512 6.51954 2.99976 6.26519 2.99976 5.99997ZM4.49976 23C4.30198 23 4.10864 22.9413 3.94419 22.8314C3.77974 22.7216 3.65157 22.5654 3.57588 22.3827C3.50019 22.1999 3.48039 21.9989 3.51898 21.8049C3.55756 21.6109 3.6528 21.4327 3.79265 21.2929C3.93251 21.153 4.11069 21.0578 4.30467 21.0192C4.49865 20.9806 4.69972 21.0004 4.88245 21.0761C5.06517 21.1518 5.22135 21.28 5.33123 21.4444C5.44111 21.6089 5.49976 21.8022 5.49976 22C5.49976 22.2652 5.3944 22.5195 5.20687 22.7071C5.01933 22.8946 4.76498 23 4.49976 23ZM10.7228 18H7.27676L5.08926 14.5L7.27676 11H10.7228L12.9103 14.5L10.7228 18ZM19.9998 20C19.802 20 19.6086 19.9413 19.4442 19.8314C19.2797 19.7216 19.1516 19.5654 19.0759 19.3827C19.0002 19.1999 18.9804 18.9989 19.019 18.8049C19.0576 18.6109 19.1528 18.4327 19.2927 18.2929C19.4325 18.153 19.6107 18.0578 19.8047 18.0192C19.9987 17.9806 20.1997 18.0004 20.3824 18.0761C20.5652 18.1518 20.7213 18.28 20.8312 18.4444C20.9411 18.6089 20.9998 18.8022 20.9998 19C20.9998 19.2652 20.8944 19.5195 20.7069 19.7071C20.5193 19.8946 20.265 20 19.9998 20Z" fill="black"/>
<path d="M10.5 12H7.5C7.36739 12 7.24021 12.0527 7.14645 12.1464C7.05268 12.2402 7 12.3674 7 12.5C7 12.6326 7.05268 12.7598 7.14645 12.8536C7.24021 12.9473 7.36739 13 7.5 13H10.5C10.6326 13 10.7598 12.9473 10.8536 12.8536C10.9473 12.7598 11 12.6326 11 12.5C11 12.3674 10.9473 12.2402 10.8536 12.1464C10.7598 12.0527 10.6326 12 10.5 12Z" fill="black"/>
<path d="M16.2424 13.4286C16.356 13.4968 16.4922 13.5172 16.6208 13.4851C16.7494 13.4531 16.8601 13.3712 16.9284 13.2576L18.4284 10.7576C18.4938 10.6441 18.5121 10.5094 18.4793 10.3825C18.4464 10.2556 18.3651 10.1467 18.2528 10.0792C18.1405 10.0117 18.0061 9.99104 17.8787 10.0216C17.7513 10.0521 17.6409 10.1315 17.5714 10.2426L16.0714 12.7426C16.0031 12.8562 15.9828 12.9923 16.0148 13.121C16.0469 13.2496 16.1288 13.3603 16.2424 13.4286Z" fill="black"/>
</g>
<defs>
<clipPath id="clip0_3750_5253">
<rect width="24" height="24" fill="white"/>
</clipPath>
</defs>
</svg>
