<svg width="24" height="24" viewBox="0 0 24 24" fill="none" xmlns="http://www.w3.org/2000/svg">
<g clip-path="url(#clip0_3750_5291)">
<path d="M8.41903 13.4248H6.83897C6.87187 13.2506 6.88898 13.0849 6.88898 12.9342C6.88898 11.8573 6.01294 10.9812 4.93608 10.9812C3.85922 10.9812 2.98312 11.8573 2.98312 12.9342C2.98312 13.0849 3.00023 13.2506 3.03314 13.4248H1.45312C0.651844 13.4248 0 14.0767 0 14.8779V17.1416C0 17.3115 0.083625 17.4704 0.223641 17.5666C0.363562 17.6628 0.542016 17.6839 0.700547 17.6229C0.999984 17.5078 1.30702 17.4392 1.52189 17.4392C2.03011 17.4392 2.44355 17.8527 2.44355 18.3609C2.44355 18.8691 2.03011 19.2826 1.52189 19.2826C1.30697 19.2826 0.999891 19.2139 0.700547 19.0989C0.542109 19.038 0.363609 19.059 0.223641 19.1552C0.083625 19.2513 0 19.4103 0 19.5801V21.8438C0 22.6451 0.651844 23.297 1.45312 23.297H8.41903C9.22031 23.297 9.87216 22.6451 9.87216 21.8438V19.5801C9.87216 19.4103 9.78853 19.2513 9.64852 19.1552C9.50855 19.059 9.33005 19.0379 9.17161 19.0988C8.87222 19.2139 8.56514 19.2825 8.35027 19.2825C7.84205 19.2825 7.42861 18.869 7.42861 18.3608C7.42861 17.8526 7.84205 17.4391 8.35027 17.4391C8.56514 17.4391 8.87222 17.5078 9.17161 17.6229C9.33009 17.6838 9.50859 17.6628 9.64852 17.5665C9.78853 17.4703 9.87216 17.3114 9.87216 17.1416V14.8779C9.87216 14.0766 9.22031 13.4248 8.41903 13.4248ZM8.84091 16.4579C8.66672 16.425 8.50097 16.4079 8.35022 16.4079C7.27336 16.4079 6.39731 17.284 6.39731 18.3609C6.39731 19.4377 7.27336 20.3138 8.35022 20.3138C8.50097 20.3138 8.66672 20.2967 8.84091 20.2638V21.8438C8.84091 22.0764 8.65167 22.2657 8.41903 22.2657H1.45312C1.22048 22.2657 1.03125 22.0764 1.03125 21.8438V20.2638C1.20544 20.2967 1.37119 20.3138 1.52194 20.3138C2.5988 20.3138 3.47484 19.4377 3.47484 18.3608C3.47484 17.284 2.5988 16.4079 1.52194 16.4079C1.37119 16.4079 1.20544 16.425 1.03125 16.4579V14.8778C1.03125 14.6452 1.22048 14.456 1.45312 14.456H3.71681C3.88664 14.456 4.04564 14.3723 4.14178 14.2323C4.23797 14.0923 4.25902 13.9139 4.19808 13.7554C4.08305 13.456 4.01437 13.1489 4.01437 12.9341C4.01437 12.4258 4.42786 12.0124 4.93608 12.0124C5.4443 12.0124 5.85773 12.4258 5.85773 12.9341C5.85773 13.149 5.78906 13.456 5.67403 13.7554C5.61309 13.9139 5.63414 14.0923 5.73033 14.2323C5.82652 14.3723 5.98542 14.456 6.1553 14.456H8.41898C8.65162 14.456 8.84086 14.6452 8.84086 14.8778V16.4579H8.84091Z" fill="#040A16"/>
<path d="M22.4785 17.4392C22.6934 17.4392 23.0004 17.5078 23.2998 17.6229C23.4583 17.6839 23.6368 17.6628 23.7767 17.5666C23.9167 17.4704 24.0004 17.3114 24.0004 17.1416V14.8779C24.0004 14.0767 23.3485 13.4248 22.5472 13.4248H20.9672C21.0001 13.2506 21.0172 13.0849 21.0172 12.9342C21.0172 11.8573 20.1411 10.9812 19.0642 10.9812C17.9874 10.9812 17.1113 11.8573 17.1113 12.9342C17.1113 13.0849 17.1284 13.2506 17.1614 13.4248H15.5813C14.78 13.4248 14.1282 14.0767 14.1282 14.8779V16.458C13.954 16.4251 13.7882 16.408 13.6375 16.408C12.5607 16.408 11.6846 17.2841 11.6846 18.3609C11.6846 19.4378 12.5607 20.3139 13.6375 20.3139C13.7882 20.3139 13.954 20.2967 14.1282 20.2639V21.8438C14.1282 22.6451 14.7798 23.297 15.5809 23.297H22.5476C23.3488 23.297 24.0004 22.6451 24.0004 21.8438V19.5801C24.0004 19.4103 23.9168 19.2513 23.7768 19.1552C23.6369 19.059 23.4583 19.0379 23.2999 19.0988C23.0005 19.2139 22.6934 19.2825 22.4785 19.2825C21.9703 19.2825 21.5569 18.869 21.5569 18.3608C21.5568 17.8526 21.9703 17.4392 22.4785 17.4392ZM22.4785 20.3138C22.6292 20.3138 22.795 20.2966 22.9692 20.2638V21.8438C22.9692 22.0764 22.7801 22.2657 22.5477 22.2657H15.581C15.3486 22.2657 15.1595 22.0764 15.1595 21.8438V19.5801C15.1595 19.4103 15.0759 19.2513 14.9359 19.1552C14.8487 19.0953 14.7467 19.0645 14.6438 19.0645C14.5815 19.0645 14.5188 19.0758 14.459 19.0988C14.1595 19.2139 13.8525 19.2825 13.6377 19.2825C13.1294 19.2825 12.716 18.869 12.716 18.3608C12.716 17.8526 13.1294 17.4391 13.6377 17.4391C13.8525 17.4391 14.1596 17.5078 14.459 17.6228C14.6176 17.6838 14.7959 17.6627 14.9359 17.5665C15.0759 17.4703 15.1596 17.3113 15.1596 17.1415V14.8778C15.1596 14.6452 15.3488 14.456 15.5814 14.456H17.8451C18.0149 14.456 18.1739 14.3723 18.2701 14.2323C18.3663 14.0923 18.3873 13.9139 18.3264 13.7554C18.2114 13.456 18.1427 13.1489 18.1427 12.9341C18.1427 12.4258 18.5561 12.0124 19.0643 12.0124C19.5726 12.0124 19.986 12.4258 19.986 12.9341C19.986 13.149 19.9174 13.456 19.8023 13.7554C19.7414 13.9139 19.7624 14.0923 19.8586 14.2323C19.9548 14.3723 20.1137 14.456 20.2836 14.456H22.5473C22.7799 14.456 22.9692 14.6452 22.9692 14.8778V16.4579C22.795 16.425 22.6292 16.4079 22.4785 16.4079C21.4016 16.4079 20.5256 17.284 20.5256 18.3608C20.5256 19.4377 21.4017 20.3138 22.4785 20.3138Z" fill="#040A16"/>
<path d="M15.4828 0.703125H8.51684C7.71555 0.703125 7.06371 1.35502 7.06371 2.15625V3.73631C6.88952 3.70341 6.72382 3.6863 6.57307 3.6863C5.49621 3.6863 4.62012 4.56239 4.62012 5.63925C4.62012 6.71611 5.49621 7.5922 6.57307 7.5922C6.72382 7.5922 6.88952 7.57505 7.06371 7.54219V9.12225C7.06371 9.92348 7.71555 10.5754 8.51684 10.5754H10.7805C10.9504 10.5754 11.1094 10.4917 11.2055 10.3517C11.3016 10.2117 11.3227 10.0334 11.2618 9.87483C11.1468 9.5753 11.0781 9.26826 11.0781 9.05344C11.0781 8.54522 11.4915 8.13173 11.9998 8.13173C12.508 8.13173 12.9215 8.54522 12.9215 9.05344C12.9215 9.26826 12.8528 9.5753 12.7377 9.87483C12.6769 10.0334 12.6979 10.2118 12.7941 10.3517C12.8903 10.4917 13.0492 10.5754 13.2191 10.5754H15.4827C16.284 10.5754 16.9359 9.92348 16.9359 9.12225V2.15625C16.936 1.35502 16.2841 0.703125 15.4828 0.703125ZM15.9047 9.12216C15.9047 9.35475 15.7155 9.54403 15.4828 9.54403H13.9028C13.9356 9.36984 13.9528 9.20409 13.9528 9.05339C13.9528 7.97653 13.0767 7.10044 11.9998 7.10044C10.923 7.10044 10.0469 7.97653 10.0469 9.05339C10.0469 9.20409 10.064 9.36984 10.0969 9.54403H8.51684C8.2842 9.54403 8.09496 9.35475 8.09496 9.12216V6.85847C8.09496 6.68859 8.01134 6.52964 7.87132 6.4335C7.73135 6.33727 7.55285 6.31627 7.39441 6.37716C7.09502 6.49219 6.78799 6.56086 6.57312 6.56086C6.0649 6.56086 5.65141 6.14737 5.65141 5.63916C5.65141 5.13094 6.0649 4.71745 6.57312 4.71745C6.78804 4.71745 7.09507 4.78612 7.39441 4.90116C7.5529 4.96214 7.73135 4.94105 7.87132 4.84481C8.01134 4.74862 8.09496 4.58967 8.09496 4.41984V2.15625C8.09496 1.92366 8.2842 1.73437 8.51684 1.73437H15.4828C15.7154 1.73437 15.9047 1.92366 15.9047 2.15625L15.9047 9.12216Z" fill="#040A16"/>
</g>
<defs>
<clipPath id="clip0_3750_5291">
<rect width="24" height="24" fill="white"/>
</clipPath>
</defs>
</svg>
