<svg width="24" height="24" viewBox="0 0 24 24" fill="none" xmlns="http://www.w3.org/2000/svg">
<g clip-path="url(#clip0_3750_5261)">
<path d="M20.9253 10.2749C21.6453 6.68989 17.5003 4.56989 15.6753 5.86989C15.8203 5.36989 15.7803 5.49989 17.3103 2.12489C17.4151 1.89626 17.4607 1.64495 17.443 1.39407C17.4253 1.1432 17.3447 0.900811 17.2088 0.689204C17.0729 0.477597 16.8859 0.303565 16.6651 0.183112C16.4444 0.0626596 16.1968 -0.000345691 15.9453 -0.000109062H14.3453C13.9865 -0.00492255 13.6379 0.11905 13.3627 0.349312C13.0875 0.579575 12.9039 0.900868 12.8453 1.25489L12.6503 2.43489C12.623 2.59274 12.5407 2.73585 12.4182 2.83899C12.2956 2.94214 12.1405 2.9987 11.9803 2.9987C11.8201 2.9987 11.6651 2.94214 11.5425 2.83899C11.4199 2.73585 11.3377 2.59274 11.3103 2.43489L11.1153 1.25489C11.0568 0.900868 10.8732 0.579575 10.598 0.349312C10.3228 0.11905 9.97413 -0.00492255 9.61533 -0.000109062H8.01533C7.76449 3.63557e-05 7.51768 0.0630871 7.29751 0.183274C7.07733 0.30346 6.89081 0.476945 6.75501 0.687853C6.61922 0.89876 6.53848 1.14036 6.52019 1.39053C6.5019 1.64071 6.54665 1.89148 6.65033 2.11989C8.19033 5.51989 8.15033 5.39489 8.29033 5.86989C6.50033 4.56989 2.35033 6.66489 3.07533 10.2749C2.38792 11.0148 2.00586 11.9874 2.00586 12.9974C2.00586 14.0074 2.38792 14.98 3.07533 15.7199C2.42533 18.9299 5.68033 21.3899 8.68033 20.2199C8.73687 20.3302 8.80745 20.4327 8.89033 20.5249C8.39033 21.0699 8.50033 21.5899 8.50033 22.5249C8.50033 22.9227 8.65837 23.3043 8.93967 23.5856C9.22098 23.8669 9.60251 24.0249 10.0003 24.0249H14.0003C14.3982 24.0249 14.7797 23.8669 15.061 23.5856C15.3423 23.3043 15.5003 22.9227 15.5003 22.5249C15.5003 21.5699 15.5953 21.0599 15.1103 20.5249C15.1948 20.434 15.2655 20.3312 15.3203 20.2199C18.3203 21.4149 21.5703 18.9449 20.9253 15.7499C21.6214 15.0083 22.0088 14.0295 22.0088 13.0124C22.0088 11.9953 21.6214 11.0165 20.9253 10.2749ZM7.60033 1.70489C7.56614 1.62883 7.55152 1.54542 7.55779 1.46226C7.56407 1.3791 7.59105 1.29883 7.63627 1.22876C7.68149 1.15869 7.74352 1.10104 7.81672 1.06107C7.88991 1.0211 7.97194 1.00006 8.05533 0.999891H9.65533C9.77445 0.998159 9.89027 1.03901 9.98194 1.1151C10.0736 1.19118 10.1351 1.29749 10.1553 1.41489L10.3503 2.59489C10.4184 2.98575 10.6222 3.34005 10.9259 3.59538C11.2296 3.85072 11.6136 3.99071 12.0103 3.99071C12.4071 3.99071 12.7911 3.85072 13.0948 3.59538C13.3984 3.34005 13.6022 2.98575 13.6703 2.59489L13.8653 1.41489C13.8856 1.29749 13.9471 1.19118 14.0387 1.1151C14.1304 1.03901 14.2462 0.998159 14.3653 0.999891H15.9653C16.0494 0.999683 16.1321 1.02067 16.2059 1.06091C16.2797 1.10115 16.3422 1.15934 16.3875 1.23011C16.4329 1.30088 16.4597 1.38194 16.4654 1.4658C16.4711 1.54966 16.4556 1.63361 16.4203 1.70989C15.0003 4.82989 14.5003 5.55989 14.5003 7.08489C14.5003 7.52989 14.5253 7.41989 14.4303 7.58489C14.1103 7.48489 14.3203 7.51489 10.0003 7.51489C9.47533 7.51489 9.64033 7.69489 9.50033 7.46989C9.50033 5.58989 9.36033 5.58989 7.60033 1.70489ZM13.8503 8.49989C13.4753 9.09989 13.3003 9.49989 12.6703 9.49989C10.7003 9.49989 10.8553 9.62989 10.1703 8.49989H13.8503ZM14.0003 19.9999C9.58033 19.9999 9.79033 20.0799 9.58533 19.7649C12.0053 18.5549 12.5303 18.8249 14.4153 19.7649C14.3712 19.8355 14.3101 19.894 14.2377 19.9351C14.1652 19.9761 14.0836 19.9984 14.0003 19.9999ZM14.5003 22.4999C14.5003 22.6325 14.4477 22.7597 14.3539 22.8534C14.2601 22.9472 14.1329 22.9999 14.0003 22.9999H10.0003C9.86772 22.9999 9.74055 22.9472 9.64678 22.8534C9.55301 22.7597 9.50033 22.6325 9.50033 22.4999V21.4999C9.50033 21.3673 9.55301 21.2401 9.64678 21.1463C9.74055 21.0526 9.86772 20.9999 10.0003 20.9999H14.0003C14.1329 20.9999 14.2601 21.0526 14.3539 21.1463C14.4477 21.2401 14.5003 21.3673 14.5003 21.4999V22.4999ZM20.0353 15.1949C19.6053 15.5849 20.2603 16.0199 19.8753 17.3649C19.3753 19.1449 17.1903 20.0349 15.4353 19.1599C14.0003 18.4399 13.3053 17.9999 12.0003 17.9999C10.6953 17.9999 9.93533 18.4999 8.55533 19.1899C8.15144 19.3971 7.7076 19.5147 7.25411 19.5347C6.80061 19.5546 6.34815 19.4765 5.92761 19.3057C5.50706 19.1348 5.12835 18.8752 4.81731 18.5445C4.50627 18.2139 4.27024 17.8201 4.12533 17.3899C3.73533 16.0399 4.41033 15.6249 3.96533 15.2199C3.66401 14.9392 3.42372 14.5994 3.25941 14.2218C3.09511 13.8441 3.01032 13.4367 3.01032 13.0249C3.01032 12.6131 3.09511 12.2056 3.25941 11.828C3.42372 11.4504 3.66401 11.1106 3.96533 10.8299C4.38533 10.4499 3.82033 10.1399 4.06033 8.92989C4.20945 8.22341 4.6032 7.59226 5.17216 7.1477C5.74112 6.70314 6.44876 6.47372 7.17033 6.49989C7.33943 6.5004 7.50564 6.54378 7.65341 6.62597C7.80119 6.70817 7.92571 6.8265 8.01533 6.96989C10.3153 10.6449 9.82533 10.4999 12.6703 10.4999C13.0094 10.4997 13.3428 10.4134 13.6393 10.2489C13.9358 10.0845 14.1856 9.8474 14.3653 9.55989L16.0003 6.96989C16.6353 5.96989 19.5003 6.63989 19.9553 8.90489C20.1903 10.0899 19.6353 10.4299 20.0503 10.8049C20.3507 11.0866 20.5898 11.4272 20.7528 11.8054C20.9159 12.1836 20.9993 12.5913 20.9979 13.0032C20.9964 13.415 20.9103 13.8221 20.7447 14.1992C20.5791 14.5763 20.3376 14.9152 20.0353 15.1949Z" fill="black"/>
<path d="M12.9201 13.1748C12.6599 13.3859 12.3351 13.5012 12.0001 13.5012C11.6651 13.5012 11.3402 13.3859 11.0801 13.1748C10.9926 13.0747 10.8688 13.0135 10.7362 13.0045C10.6035 12.9956 10.4727 13.0398 10.3726 13.1273C10.2725 13.2148 10.2112 13.3386 10.2023 13.4712C10.1934 13.6039 10.2376 13.7347 10.3251 13.8348C10.7774 14.2635 11.3769 14.5025 12.0001 14.5025C12.6233 14.5025 13.2227 14.2635 13.6751 13.8348C13.7626 13.7347 13.8068 13.6039 13.7979 13.4712C13.7889 13.3386 13.7277 13.2148 13.6276 13.1273C13.5275 13.0398 13.3967 12.9956 13.264 13.0045C13.1313 13.0135 13.0076 13.0747 12.9201 13.1748Z" fill="black"/>
<path d="M17.4203 11.1748C17.1602 11.3859 16.8353 11.5011 16.5003 11.5011C16.1653 11.5011 15.8404 11.3859 15.5803 11.1748C15.4922 11.0793 15.3703 11.0219 15.2406 11.0147C15.1108 11.0075 14.9834 11.0511 14.8852 11.1362C14.7871 11.2214 14.7259 11.3414 14.7147 11.4709C14.7036 11.6003 14.7432 11.729 14.8253 11.8298C15.277 12.2596 15.8767 12.4993 16.5003 12.4993C17.1238 12.4993 17.7235 12.2596 18.1753 11.8298C18.2574 11.729 18.297 11.6003 18.2858 11.4709C18.2746 11.3414 18.2135 11.2214 18.1154 11.1362C18.0172 11.0511 17.8898 11.0075 17.76 11.0147C17.6303 11.0219 17.5084 11.0793 17.4203 11.1748Z" fill="black"/>
<path d="M17.4203 15.6748C17.1602 15.8859 16.8353 16.0011 16.5003 16.0011C16.1653 16.0011 15.8404 15.8859 15.5803 15.6748C15.4922 15.5793 15.3703 15.5219 15.2406 15.5147C15.1108 15.5075 14.9834 15.5511 14.8852 15.6362C14.7871 15.7214 14.7259 15.8414 14.7147 15.9709C14.7036 16.1003 14.7432 16.229 14.8253 16.3298C15.277 16.7596 15.8767 16.9993 16.5003 16.9993C17.1238 16.9993 17.7235 16.7596 18.1753 16.3298C18.2574 16.229 18.297 16.1003 18.2858 15.9709C18.2746 15.8414 18.2135 15.7214 18.1154 15.6362C18.0172 15.5511 17.8898 15.5075 17.76 15.5147C17.6303 15.5219 17.5084 15.5793 17.4203 15.6748Z" fill="black"/>
<path d="M8.42008 11.1748C8.15993 11.3859 7.8351 11.5012 7.50008 11.5012C7.16505 11.5012 6.84022 11.3859 6.58008 11.1748C6.53674 11.1252 6.48406 11.0847 6.42506 11.0555C6.36605 11.0263 6.30186 11.009 6.23616 11.0045C6.17047 11.0001 6.10454 11.0087 6.04216 11.0298C5.97977 11.0508 5.92215 11.084 5.87258 11.1273C5.823 11.1707 5.78245 11.2233 5.75323 11.2823C5.72402 11.3414 5.70671 11.4055 5.7023 11.4712C5.69789 11.5369 5.70646 11.6029 5.72753 11.6652C5.74859 11.7276 5.78174 11.7852 5.82508 11.8348C6.27714 12.2621 6.87557 12.5001 7.49758 12.5001C8.11958 12.5001 8.71801 12.2621 9.17008 11.8348C9.25089 11.7345 9.28986 11.6068 9.27885 11.4785C9.26784 11.3501 9.20771 11.2309 9.11099 11.1458C9.01427 11.0607 8.88844 11.0162 8.75971 11.0216C8.63099 11.027 8.50932 11.0819 8.42008 11.1748Z" fill="black"/>
<path d="M8.42008 15.6748C8.15994 15.8859 7.8351 16.0012 7.50008 16.0012C7.16505 16.0012 6.84022 15.8859 6.58008 15.6748C6.53674 15.6252 6.48406 15.5847 6.42506 15.5555C6.36605 15.5263 6.30186 15.509 6.23616 15.5045C6.17047 15.5001 6.10454 15.5087 6.04216 15.5298C5.97978 15.5508 5.92215 15.584 5.87258 15.6273C5.823 15.6707 5.78245 15.7233 5.75323 15.7823C5.72402 15.8414 5.70671 15.9055 5.7023 15.9712C5.69339 16.1039 5.73756 16.2347 5.82508 16.3348C6.27715 16.7621 6.87557 17.0001 7.49758 17.0001C8.11958 17.0001 8.71801 16.7621 9.17008 16.3348C9.25089 16.2345 9.28986 16.1068 9.27885 15.9785C9.26784 15.8501 9.20771 15.7309 9.11099 15.6458C9.01428 15.5607 8.88844 15.5162 8.75971 15.5216C8.63099 15.527 8.50932 15.5819 8.42008 15.6748Z" fill="black"/>
</g>
<defs>
<clipPath id="clip0_3750_5261">
<rect width="24" height="24" fill="white"/>
</clipPath>
</defs>
</svg>
