<svg width="24" height="24" viewBox="0 0 24 24" fill="none" xmlns="http://www.w3.org/2000/svg">
<path d="M23.5312 10.3285H21.7864V7.79386C21.7864 7.1092 21.2294 6.55219 20.5448 6.55219H19.5563C19.4271 6.55219 19.3023 6.57206 19.185 6.6089C19.0173 6.12145 18.5542 5.77026 18.0105 5.77026H16.4446C15.76 5.77026 15.203 6.32728 15.203 7.01189V10.3286H8.39409V7.01189C8.39409 6.32728 7.83708 5.77026 7.15242 5.77026H5.58656C5.04291 5.77026 4.57973 6.1215 4.41206 6.6089C4.29478 6.57206 4.17005 6.55219 4.04072 6.55219H3.05231C2.36766 6.55219 1.81064 7.1092 1.81064 7.79386V10.3285H0.46875C0.209859 10.3285 0 10.5384 0 10.7973V13.2028C0 13.4617 0.209859 13.6716 0.46875 13.6716H1.81064V16.2062C1.81064 16.8909 2.36766 17.4479 3.05231 17.4479H4.04072C4.17 17.4479 4.29473 17.428 4.41206 17.3912C4.57978 17.8786 5.04291 18.2298 5.58656 18.2298H7.15242C7.83708 18.2298 8.39409 17.6728 8.39409 16.9882V13.6715H15.203V16.9882C15.203 17.6728 15.76 18.2298 16.4446 18.2298H18.0105C18.5542 18.2298 19.0173 17.8786 19.185 17.3912C19.3023 17.428 19.427 17.4479 19.5563 17.4479H20.5448C21.2294 17.4479 21.7864 16.8909 21.7864 16.2062V13.6716H23.5312C23.7901 13.6716 24 13.4617 24 13.2028V10.7973C24 10.5384 23.7901 10.3285 23.5312 10.3285ZM0.9375 12.7341V11.266H1.81064V12.7341H0.9375ZM4.04072 16.5105H3.05231C2.88459 16.5105 2.74814 16.374 2.74814 16.2063V7.79386C2.74814 7.62614 2.88459 7.48969 3.05231 7.48969H4.04072C4.20844 7.48969 4.34489 7.62614 4.34489 7.79386V16.2063C4.34489 16.374 4.20844 16.5105 4.04072 16.5105ZM7.45659 16.9882C7.45659 17.1559 7.32014 17.2924 7.15242 17.2924H5.58656C5.41884 17.2924 5.28239 17.1559 5.28239 16.9882V7.01184C5.28239 6.84417 5.41884 6.70772 5.58656 6.70772H7.15242C7.32014 6.70772 7.45659 6.84417 7.45659 7.01184V16.9882ZM8.39409 12.7341V11.266H15.203V12.7341H8.39409ZM18.3147 16.9882C18.3147 17.1559 18.1783 17.2924 18.0105 17.2924H16.4447C16.277 17.2924 16.1405 17.1559 16.1405 16.9882V7.01184C16.1405 6.84417 16.277 6.70772 16.4447 6.70772H18.0105C18.1783 6.70772 18.3147 6.84417 18.3147 7.01184V16.9882ZM20.8489 16.2062C20.8489 16.374 20.7125 16.5104 20.5448 16.5104H19.5563C19.3886 16.5104 19.2522 16.374 19.2522 16.2062V7.79386C19.2522 7.62614 19.3886 7.48969 19.5563 7.48969H20.5448C20.7125 7.48969 20.8489 7.62614 20.8489 7.79386V16.2062ZM23.0625 12.7341H21.7864V11.266H23.0625V12.7341Z" fill="black"/>
</svg>
