<svg preserveAspectRatio="none" width="100%" height="100%" overflow="visible" style="display: block;" viewBox="0 0 111.606 56" fill="none" xmlns="http://www.w3.org/2000/svg">
<g id="Prime Logo" clip-path="url(#clip0_0_94)">
<path id="Vector" d="M13.625 46.7048C13.8064 43.4277 14.4256 38.5336 16.5275 33.0282C22.3444 17.7978 35.1968 10.364 36.9123 9.41752C42.6464 6.26259 47.8639 5.11104 50.1749 4.68513C52.0323 4.34203 56.2797 3.68738 61.718 4.1133C70.3112 4.78766 76.5343 7.74147 78.514 8.74316C89.9585 14.5285 95.598 23.8237 97.4436 27.2034C102.294 36.0885 102.933 44.4333 102.957 48.7319H85.6915C85.6994 45.3679 85.2537 38.2457 80.9591 30.737C79.6577 28.4575 76.4909 23.5082 70.5597 19.2964C67.4678 17.0998 61.3315 13.4953 52.825 12.742C49.7687 12.4739 40.4577 12.0598 31.194 17.786C20.2306 24.5612 16.6577 35.4063 15.3326 39.4327C14.3546 42.4023 13.8774 44.9578 13.625 46.7009V46.7048Z" fill="var(--fill-0, #2463D8)"/>
<path id="Vector_2" d="M54.4419 40.4624C55.759 39.7841 67.8464 33.4466 84.5281 24.7035C84.9776 24.4669 85.3759 24.4866 85.4588 24.6325C85.5376 24.7666 85.3681 25.0821 85.025 25.3424C75.9388 32.3582 66.8486 39.3739 57.7624 46.3897C57.3562 46.7565 56.745 47.2337 55.9168 47.6241C55.2148 47.9593 54.2368 48.4207 52.9788 48.2866C52.47 48.2314 51.6419 48.1446 50.9754 47.5058C49.8081 46.3858 50.1985 44.5796 50.2458 44.3587C50.4548 43.4438 50.9793 42.8404 51.1805 42.6156C51.3461 42.4303 51.6143 42.1661 52.7145 41.472C53.7833 40.7976 54.4419 40.4584 54.4419 40.4584V40.4624Z" fill="var(--fill-0, white)"/>
<g id="Vector_3">
</g>
<path id="Vector_4" d="M11.0223 22.0725V24.4584H14.6149C15.1789 24.4584 15.5851 24.3637 15.8335 24.1784C16.0938 23.9851 16.2239 23.6775 16.2239 23.2635C16.2239 22.8494 16.0938 22.5457 15.8335 22.3604C15.5851 22.1671 15.1789 22.0685 14.6149 22.0685H11.0223V22.0725ZM6.99183 29.5773V20.1125H15.94C16.7406 20.1125 17.4268 20.1913 17.9907 20.3491C18.5665 20.4989 19.0318 20.7158 19.3789 20.9998C19.7299 21.2837 19.9823 21.615 20.14 21.9936C20.3096 22.3722 20.3924 22.7981 20.3924 23.2674C20.3924 23.6815 20.3175 24.0758 20.1715 24.4466C20.0256 24.8173 19.7811 25.1525 19.442 25.4522C19.1146 25.7519 18.673 25.9925 18.1208 26.1699C17.5687 26.3395 16.9023 26.4223 16.1214 26.4223H11.0223V29.5773H6.98789H6.99183Z" fill="var(--fill-0, white)"/>
<path id="Vector_5" d="M26.0322 22.2342V24.3006H29.9128C30.3979 24.3006 30.7725 24.206 31.0328 24.0206C31.2931 23.8353 31.4232 23.5789 31.4232 23.2516C31.4232 22.9243 31.2931 22.6877 31.0328 22.5102C30.7725 22.3249 30.4018 22.2302 29.9128 22.2302H26.0322V22.2342ZM21.9979 29.5773V20.1125H31.6914C33.115 20.1125 34.1443 20.3412 34.7753 20.8026C35.4181 21.264 35.7415 21.9108 35.7415 22.7508C35.7415 23.3502 35.5601 23.8353 35.2012 24.1942C34.8502 24.557 34.3888 24.7936 33.8131 24.9119V24.9395C34.2311 25.046 34.5624 25.2353 34.8108 25.5113C35.0711 25.7835 35.2249 26.162 35.2683 26.6392C35.3235 27.215 35.3708 27.637 35.4024 27.913C35.4379 28.1851 35.4773 28.4336 35.5207 28.6544C35.5759 28.8674 35.6469 29.0488 35.7257 29.1987C35.8046 29.3406 35.9071 29.4668 36.0294 29.5812H31.6086C31.506 29.3958 31.439 29.1868 31.4035 28.9581C31.3798 28.7294 31.368 28.4691 31.368 28.1773C31.368 27.4792 31.2339 27.0139 30.9618 26.7851C30.7015 26.5446 30.2914 26.4263 29.7235 26.4263H26.0283V29.5812H21.9939L21.9979 29.5773Z" fill="var(--fill-0, white)"/>
<path id="Vector_6" d="M37.6852 29.5773V20.1125H41.7196V29.5773H37.6852Z" fill="var(--fill-0, white)"/>
<path id="Vector_7" d="M44.1532 29.5773V20.1125H50.0489L52.8095 26.3553H52.845L55.6056 20.1125H61.5013V29.5773H57.7075V22.4984H57.676L54.4895 29.5773H51.1689L47.9825 22.4984H47.947V29.5773H44.1532Z" fill="var(--fill-0, white)"/>
<path id="Vector_8" d="M63.8914 29.5773V20.1125H76.0063V22.1553H67.9257V23.8668H75.5015V25.8268H67.9257V27.5384H76.0063V29.5812H63.8914V29.5773Z" fill="var(--fill-0, white)"/>
<path id="Vector_9" d="M11.693 37.4296H14.0355C13.9645 37.7215 13.8541 37.9857 13.7003 38.2223C13.5544 38.451 13.3296 38.66 13.0338 38.8454C12.7381 39.0307 12.3437 39.1767 11.8468 39.2871C11.3499 39.3896 10.7426 39.4409 10.0288 39.4409C8.69975 39.4409 7.702 39.224 7.03947 38.7902C6.37693 38.3524 6.04567 37.7136 6.04567 36.8775C6.04567 36.0415 6.36905 35.4144 7.01975 34.9767C7.6744 34.535 8.68003 34.3141 10.0288 34.3141C10.5493 34.3141 11.0186 34.3417 11.4406 34.4009C11.8665 34.4561 12.253 34.5547 12.604 34.7046C12.951 34.8505 13.2468 35.0555 13.4913 35.3198C13.7319 35.58 13.9093 35.9153 14.0237 36.3215H11.6733C11.6338 36.2071 11.5786 36.1046 11.5155 36.002C11.4564 35.9034 11.3657 35.8088 11.2395 35.7181C11.1212 35.6234 10.9634 35.5485 10.7623 35.4893C10.569 35.4262 10.3285 35.3947 10.0445 35.3947C9.7251 35.3947 9.44905 35.4341 9.22031 35.5091C8.99552 35.584 8.81412 35.6905 8.68003 35.8285C8.54595 35.9626 8.44341 36.1203 8.38031 36.3017C8.32116 36.4792 8.28961 36.6685 8.28961 36.8775C8.28961 37.0865 8.31722 37.2837 8.38031 37.4572C8.43947 37.6347 8.53412 37.7885 8.66426 37.9226C8.79834 38.0567 8.97975 38.1631 9.20454 38.242C9.43327 38.3169 9.71721 38.3564 10.0485 38.3564C10.5138 38.3564 10.8924 38.2736 11.1764 38.1119C11.4603 37.9462 11.6378 37.7175 11.7088 37.4296H11.693Z" fill="var(--fill-0, white)"/>
<path id="Vector_10" d="M14.8714 39.2864V34.4554H16.9812V38.1624H20.8381V39.2864H14.8674H14.8714Z" fill="var(--fill-0, white)"/>
<path id="Vector_11" d="M21.5951 39.2864V34.4554H23.705V39.2864H21.5951Z" fill="var(--fill-0, white)"/>
<path id="Vector_12" d="M24.971 39.2864V34.4554H27.4003L30.3383 37.4802H30.358V34.4554H32.3969V39.2864H30.0622L27.0296 36.234H27.0138V39.2864H24.9749H24.971Z" fill="var(--fill-0, white)"/>
<path id="Vector_13" d="M33.6629 39.2864V34.4554H35.7727V39.2864H33.6629Z" fill="var(--fill-0, white)"/>
<path id="Vector_14" d="M42.355 37.4296H44.6976C44.6266 37.7215 44.5161 37.9857 44.3623 38.2223C44.2125 38.451 43.9916 38.66 43.6959 38.8454C43.4001 39.0307 43.0057 39.1767 42.5088 39.2871C42.0119 39.3896 41.4046 39.4409 40.6908 39.4409C39.3618 39.4409 38.364 39.224 37.7015 38.7902C37.039 38.3524 36.7077 37.7136 36.7077 36.8775C36.7077 36.0415 37.0311 35.4144 37.6818 34.9767C38.3364 34.535 39.3421 34.3141 40.6908 34.3141C41.2114 34.3141 41.6807 34.3417 42.1026 34.4009C42.5285 34.4561 42.915 34.5547 43.266 34.7046C43.613 34.8505 43.9088 35.0555 44.1533 35.3198C44.3939 35.58 44.5714 35.9153 44.6857 36.3215H42.3353C42.2959 36.2071 42.2407 36.1046 42.1776 36.002C42.1184 35.9034 42.0277 35.8088 41.9015 35.7181C41.7832 35.6234 41.6254 35.5485 41.4243 35.4893C41.2311 35.4262 40.9905 35.3947 40.7066 35.3947C40.3871 35.3947 40.1111 35.4341 39.8823 35.5091C39.6576 35.584 39.4761 35.6905 39.3421 35.8285C39.208 35.9626 39.1054 36.1203 39.0423 36.3017C38.9832 36.4792 38.9556 36.6685 38.9556 36.8775C38.9556 37.0865 38.9832 37.2837 39.0423 37.4572C39.1015 37.6347 39.1961 37.7885 39.3263 37.9226C39.4604 38.0567 39.6418 38.1631 39.8666 38.242C40.0953 38.3169 40.3792 38.3564 40.7105 38.3564C41.1759 38.3564 41.5545 38.2736 41.8384 38.1119C42.1223 37.9462 42.2998 37.7175 42.3708 37.4296H42.355Z" fill="var(--fill-0, white)"/>
<path id="Vector_15" d="M52.3124 35.8713H49.9186C49.8831 35.6899 49.7608 35.5518 49.5479 35.4572C49.3389 35.3586 49.0076 35.3073 48.5462 35.3073C47.8127 35.3073 47.4459 35.4651 47.4459 35.7806C47.4459 35.9383 47.6036 36.0369 47.9152 36.0763C48.0572 36.0961 48.278 36.1197 48.5817 36.1591C48.8893 36.1946 49.0589 36.2144 49.0865 36.2144C50.0014 36.3287 50.5377 36.3918 50.6915 36.4115C51.3186 36.4944 51.7879 36.6403 52.1034 36.8493C52.4228 37.0622 52.5845 37.3738 52.5845 37.7839C52.5845 38.1625 52.4465 38.4701 52.1665 38.7028C51.8943 38.9315 51.5552 39.1011 51.1529 39.2037C50.7586 39.3062 50.38 39.3693 50.0172 39.393C49.6622 39.4206 49.2994 39.4324 48.9248 39.4324C48.3451 39.4324 47.8324 39.4087 47.3907 39.3575C46.9529 39.3141 46.5665 39.2313 46.2273 39.113C45.896 38.9907 45.6318 38.8251 45.4386 38.6121C45.2414 38.3952 45.131 38.1231 45.1034 37.7918H47.6036C47.6352 37.989 47.7496 38.1389 47.9507 38.2375C48.1518 38.336 48.5107 38.3873 49.0234 38.3873C49.1732 38.3873 49.3073 38.3794 49.4335 38.3676C49.5636 38.3518 49.682 38.3242 49.7884 38.2848C49.8949 38.2453 49.9777 38.1901 50.0369 38.131C50.1039 38.0639 50.1355 37.9811 50.1355 37.8825C50.1355 37.7563 50.0605 37.6617 49.9146 37.6065C49.7727 37.5473 49.5124 37.496 49.1338 37.4527L47.0239 37.2082C46.3969 37.1372 45.9394 36.9834 45.6476 36.7546C45.3597 36.522 45.2138 36.2144 45.2138 35.8397C45.2138 35.6583 45.2572 35.4808 45.3479 35.3073C45.4425 35.1299 45.6082 34.9682 45.8448 34.8222C46.0853 34.6684 46.4284 34.5462 46.8662 34.4515C47.3039 34.3569 47.8521 34.3096 48.5067 34.3096C49.7017 34.3096 50.6166 34.4318 51.2555 34.6763C51.8983 34.9208 52.2532 35.3191 52.3203 35.8752L52.3124 35.8713Z" fill="var(--fill-0, white)"/>
</g>
<defs>
<clipPath id="clip0_0_94">
<rect width="111.606" height="56" fill="white"/>
</clipPath>
</defs>
</svg>
