<svg preserveAspectRatio="none" width="100%" height="100%" overflow="visible" style="display: block;" viewBox="0 0 79.7125 40" fill="none" xmlns="http://www.w3.org/2000/svg">
<g id="Icon">
<path id="Vector" d="M9.73047 33.3595C9.86003 31.0189 10.3023 27.5234 11.8035 23.5913C15.9581 12.7133 25.1377 7.40381 26.363 6.72781C30.4585 4.47446 34.185 3.65198 35.8356 3.34779C37.1622 3.10273 40.1958 2.63516 44.08 2.93937C50.2175 3.42102 54.6623 5.53072 56.0762 6.24616C64.2502 10.3782 68.2782 17.0172 69.5963 19.431C73.0606 25.7771 73.517 31.7372 73.5342 34.8074H61.2026C61.2083 32.4047 60.8899 27.3178 57.8226 21.9548C56.8931 20.3268 54.6313 16.7918 50.395 13.7836C48.1867 12.2147 43.8039 9.64028 37.7283 9.10225C35.5454 8.91077 28.8952 8.61501 22.2788 12.7048C14.4484 17.5439 11.8965 25.2898 10.9501 28.1656C10.2516 30.2866 9.91074 32.1118 9.73047 33.3568V33.3595Z" fill="var(--fill-0, #2463D8)"/>
<path id="Vector_2" d="M38.8851 28.901C39.8258 28.4165 48.459 23.8901 60.3736 17.6455C60.6946 17.4765 60.9791 17.4906 61.0383 17.5948C61.0946 17.6905 60.9735 17.9159 60.7285 18.1018C54.2388 23.1127 47.7463 28.1235 41.2567 33.1344C40.9665 33.3964 40.53 33.7373 39.9385 34.0161C39.4371 34.2555 38.7386 34.585 37.8401 34.4893C37.4767 34.4498 36.8852 34.3878 36.4092 33.9316C35.5755 33.1317 35.8543 31.8416 35.8881 31.6838C36.0373 31.0304 36.412 30.5994 36.5557 30.4389C36.6739 30.3065 36.8655 30.1178 37.6513 29.6221C38.4147 29.1404 38.8851 28.8981 38.8851 28.8981V28.901Z" fill="var(--fill-0, white)"/>
<path id="Vector_3" d="M7.87174 15.7663V17.4704H10.4377C10.8405 17.4704 11.1306 17.4028 11.308 17.2704C11.494 17.1324 11.5869 16.9127 11.5869 16.617C11.5869 16.3212 11.494 16.1043 11.308 15.972C11.1306 15.8339 10.8405 15.7635 10.4377 15.7635H7.87174V15.7663ZM4.99305 21.1265V14.3665H11.3841C11.9559 14.3665 12.446 14.4227 12.8488 14.5354C13.26 14.6424 13.5924 14.7974 13.8403 15.0002C14.091 15.203 14.2712 15.4396 14.3839 15.71C14.505 15.9804 14.5642 16.2846 14.5642 16.6198C14.5642 16.9155 14.5107 17.1972 14.4064 17.462C14.3022 17.7268 14.1275 17.9662 13.8853 18.1802C13.6515 18.3943 13.3361 18.5661 12.9417 18.6928C12.5474 18.814 12.0714 18.8731 11.5137 18.8731H7.87174V21.1265H4.99023H4.99305Z" fill="var(--fill-0, white)"/>
<path id="Vector_4" d="M18.5933 15.8818V17.3577H21.3649C21.7114 17.3577 21.9789 17.2902 22.1649 17.1577C22.3508 17.0254 22.4437 16.8423 22.4437 16.6085C22.4437 16.3747 22.3508 16.2057 22.1649 16.079C21.9789 15.9466 21.7142 15.879 21.3649 15.879H18.5933V15.8818ZM15.7118 21.1265V14.3665H22.6352C23.652 14.3665 24.3872 14.5298 24.8379 14.8593C25.297 15.1889 25.528 15.6509 25.528 16.2508C25.528 16.6789 25.3984 17.0254 25.1421 17.2817C24.8914 17.5409 24.5618 17.7098 24.1506 17.7943V17.8141C24.4492 17.8901 24.6858 18.0253 24.8632 18.2224C25.0491 18.4169 25.159 18.6872 25.19 19.028C25.2294 19.4393 25.2632 19.7407 25.2858 19.9378C25.3111 20.1322 25.3392 20.3096 25.3702 20.4673C25.4097 20.6195 25.4604 20.749 25.5167 20.8561C25.573 20.9575 25.6462 21.0476 25.7336 21.1293H22.5761C22.5028 20.9969 22.455 20.8476 22.4296 20.6843C22.4127 20.5209 22.4043 20.335 22.4043 20.1266C22.4043 19.628 22.3085 19.2957 22.1141 19.1322C21.9282 18.9605 21.6353 18.876 21.2297 18.876H18.5905V21.1293H15.709L15.7118 21.1265Z" fill="var(--fill-0, white)"/>
<path id="Vector_5" d="M26.916 21.1266V14.3665H29.7974V21.1266H26.916Z" fill="var(--fill-0, white)"/>
<path id="Vector_6" d="M31.5352 21.1265V14.3665H35.7461L37.7178 18.8253H37.7431L39.7148 14.3665H43.9257V21.1265H41.2161V16.0705H41.1936L38.9177 21.1265H36.546L34.2702 16.0705H34.2448V21.1265H31.5352Z" fill="var(--fill-0, white)"/>
<path id="Vector_7" d="M45.6328 21.1265V14.3665H54.2857V15.8255H48.5142V17.0479H53.9251V18.4478H48.5142V19.6703H54.2857V21.1293H45.6328V21.1265Z" fill="var(--fill-0, white)"/>
<path id="Vector_8" d="M8.35186 26.735H10.0249C9.97424 26.9434 9.89538 27.1321 9.78554 27.3011C9.68133 27.4645 9.52077 27.6137 9.3095 27.7462C9.0983 27.8785 8.81661 27.9828 8.46171 28.0616C8.10681 28.1348 7.67305 28.1715 7.16324 28.1715C6.21399 28.1715 5.50136 28.0166 5.02816 27.7067C4.55496 27.394 4.31836 26.9378 4.31836 26.3406C4.31836 25.7435 4.54933 25.2956 5.01408 24.983C5.48165 24.6675 6.1999 24.5098 7.16324 24.5098C7.53499 24.5098 7.87018 24.5295 8.17159 24.5718C8.47578 24.6112 8.75183 24.6816 9.00252 24.7887C9.25036 24.8929 9.46163 25.0393 9.63626 25.2281C9.80811 25.4139 9.93481 25.6534 10.0165 25.9435H8.33779C8.30958 25.8618 8.27015 25.7886 8.22508 25.7153C8.18287 25.6449 8.11809 25.5773 8.02796 25.5125C7.94346 25.4449 7.83076 25.3914 7.68712 25.3491C7.54906 25.3041 7.37729 25.2816 7.17445 25.2816C6.94632 25.2816 6.74916 25.3097 6.58579 25.3633C6.42523 25.4168 6.29567 25.4928 6.1999 25.5914C6.10414 25.6872 6.0309 25.7998 5.98583 25.9294C5.94359 26.0561 5.92105 26.1914 5.92105 26.3406C5.92105 26.4899 5.94077 26.6307 5.98583 26.7547C6.02809 26.8814 6.09569 26.9913 6.18864 27.0871C6.2844 27.1828 6.41397 27.2588 6.57452 27.3152C6.73789 27.3687 6.94069 27.3969 7.17731 27.3969C7.50964 27.3969 7.78005 27.3378 7.98289 27.2223C8.18566 27.1039 8.31243 26.9406 8.36314 26.735H8.35186Z" fill="var(--fill-0, white)"/>
<path id="Vector_9" d="M10.622 28.061V24.6106H12.1289V27.2583H14.8836V28.061H10.6191H10.622Z" fill="var(--fill-0, white)"/>
<path id="Vector_10" d="M15.4239 28.0611V24.6106H16.9309V28.0611H15.4239Z" fill="var(--fill-0, white)"/>
<path id="Vector_11" d="M17.8359 28.061V24.6106H19.571L21.6694 26.771H21.6835V24.6106H23.1397V28.061H21.4722L19.3063 25.8809H19.295V28.061H17.8387H17.8359Z" fill="var(--fill-0, white)"/>
<path id="Vector_12" d="M24.0431 28.0611V24.6106H25.55V28.0611H24.0431Z" fill="var(--fill-0, white)"/>
<path id="Vector_13" d="M30.2522 26.735H31.9254C31.8747 26.9434 31.7958 27.1321 31.6859 27.3011C31.5789 27.4645 31.4211 27.6137 31.2099 27.7462C30.9987 27.8785 30.717 27.9828 30.3621 28.0616C30.0072 28.1348 29.5734 28.1715 29.0636 28.1715C28.1144 28.1715 27.4017 28.0166 26.9286 27.7067C26.4554 27.394 26.2188 26.9378 26.2188 26.3406C26.2188 25.7435 26.4497 25.2956 26.9145 24.983C27.382 24.6675 28.1003 24.5098 29.0636 24.5098C29.4354 24.5098 29.7706 24.5295 30.072 24.5718C30.3761 24.6112 30.6522 24.6816 30.9029 24.7887C31.1507 24.8929 31.362 25.0393 31.5366 25.2281C31.7085 25.4139 31.8353 25.6534 31.9169 25.9435H30.2382C30.21 25.8618 30.1706 25.7886 30.1255 25.7153C30.0832 25.6449 30.0185 25.5773 29.9283 25.5125C29.8438 25.4449 29.7311 25.3914 29.5875 25.3491C29.4495 25.3041 29.2777 25.2816 29.0749 25.2816C28.8467 25.2816 28.6496 25.3097 28.4862 25.3633C28.3257 25.4168 28.196 25.4928 28.1003 25.5914C28.0045 25.6872 27.9313 25.7998 27.8862 25.9294C27.844 26.0561 27.8243 26.1914 27.8243 26.3406C27.8243 26.4899 27.844 26.6307 27.8862 26.7547C27.9285 26.8814 27.996 26.9913 28.089 27.0871C28.1848 27.1828 28.3144 27.2588 28.4749 27.3152C28.6383 27.3687 28.8411 27.3969 29.0777 27.3969C29.4101 27.3969 29.6805 27.3378 29.8833 27.2223C30.086 27.1039 30.2128 26.9406 30.2635 26.735H30.2522Z" fill="var(--fill-0, white)"/>
<path id="Vector_14" d="M37.3637 25.6219H35.654C35.6287 25.4923 35.5413 25.3937 35.3892 25.3261C35.24 25.2557 35.0033 25.2191 34.6738 25.2191C34.1499 25.2191 33.8879 25.3318 33.8879 25.5571C33.8879 25.6697 34.0006 25.7402 34.2231 25.7683C34.3245 25.7824 34.4822 25.7993 34.6992 25.8274C34.9189 25.8528 35.04 25.8669 35.0597 25.8669C35.7131 25.9486 36.0962 25.9936 36.206 26.0077C36.6539 26.0669 36.9891 26.1711 37.2145 26.3204C37.4426 26.4725 37.5581 26.695 37.5581 26.9879C37.5581 27.2583 37.4595 27.478 37.2595 27.6442C37.0651 27.8076 36.8229 27.9287 36.5356 28.002C36.254 28.0752 35.9836 28.1203 35.7244 28.1372C35.4709 28.1569 35.2118 28.1653 34.9442 28.1653C34.5302 28.1653 34.164 28.1484 33.8485 28.1118C33.5358 28.0808 33.2598 28.0217 33.0176 27.9372C32.7809 27.8499 32.5922 27.7316 32.4543 27.5794C32.3134 27.4245 32.2346 27.2302 32.2148 26.9936H34.0006C34.0231 27.1344 34.1048 27.2415 34.2485 27.3119C34.3921 27.3822 34.6484 27.4189 35.0146 27.4189C35.1216 27.4189 35.2174 27.4132 35.3075 27.4048C35.4005 27.3935 35.485 27.3738 35.561 27.3457C35.6371 27.3175 35.6962 27.278 35.7385 27.2358C35.7864 27.1879 35.8089 27.1288 35.8089 27.0583C35.8089 26.9682 35.7554 26.9006 35.6512 26.8612C35.5498 26.8189 35.3639 26.7823 35.0935 26.7514L33.5865 26.5767C33.1387 26.526 32.8119 26.4162 32.6035 26.2528C32.3979 26.0866 32.2937 25.8669 32.2937 25.5993C32.2937 25.4698 32.3247 25.343 32.3895 25.2191C32.457 25.0924 32.5754 24.9769 32.7444 24.8726C32.9161 24.7627 33.1612 24.6755 33.4739 24.6078C33.7865 24.5403 34.178 24.5065 34.6456 24.5065C35.4991 24.5065 36.1525 24.5937 36.6089 24.7684C37.068 24.943 37.3215 25.2275 37.3694 25.6247L37.3637 25.6219Z" fill="var(--fill-0, white)"/>
</g>
</svg>
