<svg preserveAspectRatio="none" width="100%" height="100%" overflow="visible" style="display: block;" viewBox="0 0 42 42" fill="none" xmlns="http://www.w3.org/2000/svg">
<g id="basil:cancel-outline">
<rect id="Rectangle 34624927" opacity="0.5" x="7.54736" y="7.875" width="26.5781" height="26.5781" rx="4.92187" fill="var(--fill-0, black)"/>
<path id="Vector" d="M14.8278 14.8214C15.0739 14.5756 15.4075 14.4376 15.7553 14.4376C16.1032 14.4376 16.4368 14.5756 16.6828 14.8214L21.0053 19.1439L25.3278 14.8214C25.448 14.6925 25.5929 14.5891 25.7539 14.5173C25.9149 14.4456 26.0887 14.407 26.2649 14.4039C26.4412 14.4008 26.6162 14.4332 26.7796 14.4992C26.9431 14.5652 27.0915 14.6635 27.2162 14.7881C27.3408 14.9128 27.439 15.0612 27.5051 15.2246C27.5711 15.3881 27.6035 15.5631 27.6004 15.7393C27.5973 15.9156 27.5587 16.0894 27.487 16.2504C27.4152 16.4114 27.3118 16.5563 27.1828 16.6764L22.8603 20.9989L27.1828 25.3214C27.4147 25.5702 27.5409 25.8993 27.5349 26.2393C27.5289 26.5794 27.3912 26.9038 27.1507 27.1443C26.9102 27.3847 26.5858 27.5225 26.2458 27.5285C25.9057 27.5345 25.5767 27.4083 25.3278 27.1764L21.0053 22.8539L16.6828 27.1764C16.5627 27.3054 16.4178 27.4088 16.2568 27.4806C16.0958 27.5523 15.922 27.5909 15.7458 27.594C15.5695 27.5971 15.3945 27.5647 15.2311 27.4986C15.0676 27.4326 14.9192 27.3344 14.7945 27.2098C14.6699 27.0851 14.5716 26.9367 14.5056 26.7732C14.4396 26.6098 14.4072 26.4348 14.4103 26.2585C14.4134 26.0823 14.452 25.9085 14.5237 25.7475C14.5955 25.5865 14.6989 25.4416 14.8278 25.3214L19.1503 20.9989L14.8278 16.6764C14.5821 16.4303 14.444 16.0967 14.444 15.7489C14.444 15.4011 14.5821 15.0675 14.8278 14.8214Z" fill="var(--fill-0, white)"/>
<path id="Vector_2" fill-rule="evenodd" clip-rule="evenodd" d="M12.8024 6.59514C18.2492 5.99129 23.7461 5.99129 29.1929 6.59514C32.3902 6.95214 34.9714 9.47039 35.3459 12.6851C35.9934 18.2099 35.9934 23.7906 35.3459 29.3154C34.9697 32.5301 32.3884 35.0466 29.1929 35.4054C23.7461 36.0092 18.2492 36.0092 12.8024 35.4054C9.60517 35.0466 7.02392 32.5301 6.64942 29.3154C6.00482 23.7907 6.00482 18.2098 6.64942 12.6851C7.02392 9.47039 9.60692 6.95214 12.8024 6.59514ZM28.9024 9.20264C23.6487 8.62028 18.3467 8.62028 13.0929 9.20264C12.1203 9.31054 11.2125 9.74317 10.5162 10.4306C9.81981 11.1181 9.37555 12.0203 9.25517 12.9914C8.63274 18.3131 8.63274 23.6892 9.25517 29.0109C9.37592 29.9817 9.82034 30.8834 10.5167 31.5706C11.213 32.2577 12.1206 32.6901 13.0929 32.7979C18.3027 33.3789 23.6927 33.3789 28.9024 32.7979C29.8744 32.6897 30.7816 32.2572 31.4776 31.5701C32.1736 30.883 32.6177 29.9814 32.7384 29.0109C33.3608 23.6892 33.3608 18.3131 32.7384 12.9914C32.6174 12.0212 32.173 11.12 31.4771 10.4333C30.7811 9.74654 29.8742 9.31425 28.9024 9.20614" fill="var(--fill-0, white)"/>
</g>
</svg>
