<svg width="112" height="56" viewBox="0 0 112 56" fill="none" xmlns="http://www.w3.org/2000/svg">
<g clip-path="url(#clip0_3437_106)">
<path d="M13.625 46.705C13.8064 43.4278 14.4256 38.5337 16.5275 33.0284C22.3444 17.798 35.1968 10.3642 36.9123 9.41769C42.6464 6.26276 47.8639 5.11121 50.1749 4.68529C52.0323 4.34219 56.2796 3.68755 61.718 4.11346C70.3112 4.78783 76.5343 7.74163 78.514 8.74332C89.9585 14.5287 95.598 23.8239 97.4436 27.2036C102.294 36.0887 102.933 44.4335 102.957 48.7321H85.6915C85.6994 45.3681 85.2537 38.2459 80.9591 30.7371C79.6577 28.4577 76.4909 23.5084 70.5596 19.2966C67.4678 17.0999 61.3315 13.4954 52.825 12.7422C49.7687 12.474 40.4577 12.0599 31.194 17.7861C20.2306 24.5613 16.6577 35.4064 15.3326 39.4329C14.3546 42.4025 13.8774 44.958 13.625 46.7011V46.705Z" fill="#2463D8"/>
<path d="M54.4419 40.4624C55.7591 39.7841 67.8464 33.4466 84.5281 24.7035C84.9777 24.4669 85.376 24.4866 85.4588 24.6325C85.5377 24.7666 85.3681 25.0821 85.025 25.3424C75.9388 32.3582 66.8487 39.3739 57.7625 46.3897C57.3563 46.7565 56.745 47.2337 55.9169 47.6241C55.2149 47.9593 54.2369 48.4207 52.9788 48.2866C52.4701 48.2314 51.6419 48.1446 50.9754 47.5058C49.8081 46.3858 50.1986 44.5796 50.2459 44.3587C50.4549 43.4438 50.9794 42.8404 51.1805 42.6156C51.3462 42.4303 51.6143 42.1661 52.7146 41.472C53.7833 40.7976 54.4419 40.4584 54.4419 40.4584V40.4624Z" fill="white"/>
<path d="M11.0226 22.0723V24.4582H14.6153C15.1793 24.4582 15.5855 24.3636 15.8339 24.1782C16.0942 23.985 16.2243 23.6774 16.2243 23.2633C16.2243 22.8492 16.0942 22.5455 15.8339 22.3602C15.5855 22.167 15.1793 22.0684 14.6153 22.0684H11.0226V22.0723ZM6.99223 29.5771V20.1123H15.9404C16.741 20.1123 17.4272 20.1912 17.9911 20.3489C18.5669 20.4988 19.0322 20.7157 19.3793 20.9996C19.7303 21.2836 19.9826 21.6148 20.1404 21.9934C20.31 22.372 20.3928 22.7979 20.3928 23.2672C20.3928 23.6813 20.3179 24.0757 20.1719 24.4464C20.026 24.8171 19.7815 25.1523 19.4424 25.452C19.115 25.7517 18.6734 25.9923 18.1212 26.1698C17.5691 26.3393 16.9026 26.4222 16.1218 26.4222H11.0226V29.5771H6.98828H6.99223Z" fill="white"/>
<path d="M26.0325 22.234V24.3005H29.913C30.3981 24.3005 30.7727 24.2058 31.033 24.0205C31.2933 23.8351 31.4234 23.5788 31.4234 23.2515C31.4234 22.9241 31.2933 22.6875 31.033 22.5101C30.7727 22.3247 30.402 22.2301 29.913 22.2301H26.0325V22.234ZM21.9981 29.5771V20.1123H31.6916C33.1153 20.1123 34.1446 20.341 34.7755 20.8024C35.4184 21.2639 35.7417 21.9106 35.7417 22.7506C35.7417 23.3501 35.5603 23.8351 35.2015 24.194C34.8505 24.5568 34.3891 24.7934 33.8133 24.9117V24.9393C34.2313 25.0458 34.5626 25.2351 34.811 25.5112C35.0713 25.7833 35.2251 26.1619 35.2685 26.6391C35.3237 27.2148 35.371 27.6368 35.4026 27.9129C35.4381 28.185 35.4775 28.4334 35.5209 28.6543C35.5761 28.8672 35.6471 29.0486 35.726 29.1985C35.8048 29.3405 35.9074 29.4667 36.0296 29.581H31.6088C31.5063 29.3957 31.4392 29.1867 31.4037 28.9579C31.3801 28.7292 31.3682 28.4689 31.3682 28.1771C31.3682 27.4791 31.2341 27.0137 30.962 26.785C30.7017 26.5444 30.2916 26.4261 29.7237 26.4261H26.0285V29.581H21.9941L21.9981 29.5771Z" fill="white"/>
<path d="M37.6855 29.5771V20.1123H41.7199V29.5771H37.6855Z" fill="white"/>
<path d="M44.1533 29.5771V20.1123H50.0491L52.8097 26.3551H52.8452L55.6057 20.1123H61.5015V29.5771H57.7077V22.4982H57.6761L54.4897 29.5771H51.1691L47.9826 22.4982H47.9471V29.5771H44.1533Z" fill="white"/>
<path d="M63.8916 29.5771V20.1123H76.0065V22.1551H67.926V23.8667H75.5017V25.8267H67.926V27.5382H76.0065V29.581H63.8916V29.5771Z" fill="white"/>
<path d="M11.6932 37.4295H14.0358C13.9648 37.7213 13.8544 37.9855 13.7005 38.2221C13.5546 38.4509 13.3298 38.6599 13.0341 38.8452C12.7383 39.0306 12.3439 39.1765 11.847 39.2869C11.3501 39.3895 10.7428 39.4407 10.029 39.4407C8.69998 39.4407 7.70224 39.2238 7.0397 38.79C6.37717 38.3523 6.0459 37.7134 6.0459 36.8773C6.0459 36.0413 6.36928 35.4142 7.01998 34.9765C7.67463 34.5348 8.68026 34.314 10.029 34.314C10.5496 34.314 11.0189 34.3416 11.4408 34.4007C11.8667 34.4559 12.2532 34.5545 12.6042 34.7044C12.9513 34.8503 13.247 35.0554 13.4915 35.3196C13.7321 35.5799 13.9096 35.9151 14.0239 36.3213H11.6735C11.6341 36.2069 11.5789 36.1044 11.5158 36.0019C11.4566 35.9033 11.3659 35.8086 11.2397 35.7179C11.1214 35.6233 10.9636 35.5483 10.7625 35.4892C10.5693 35.4261 10.3287 35.3945 10.0448 35.3945C9.72533 35.3945 9.44928 35.434 9.22055 35.5089C8.99576 35.5838 8.81435 35.6903 8.68026 35.8283C8.54618 35.9624 8.44365 36.1202 8.38055 36.3016C8.32139 36.479 8.28984 36.6683 8.28984 36.8773C8.28984 37.0864 8.31745 37.2835 8.38055 37.4571C8.4397 37.6345 8.53435 37.7883 8.66449 37.9224C8.79857 38.0565 8.97998 38.163 9.20477 38.2419C9.4335 38.3168 9.71745 38.3562 10.0487 38.3562C10.5141 38.3562 10.8927 38.2734 11.1766 38.1117C11.4605 37.9461 11.638 37.7173 11.709 37.4295H11.6932Z" fill="white"/>
<path d="M14.8711 39.2866V34.4556H16.981V38.1626H20.8379V39.2866H14.8672H14.8711Z" fill="white"/>
<path d="M21.5947 39.2866V34.4556H23.7046V39.2866H21.5947Z" fill="white"/>
<path d="M24.9707 39.2866V34.4556H27.4L30.338 37.4804H30.3577V34.4556H32.3966V39.2866H30.062L27.0293 36.2342H27.0135V39.2866H24.9746H24.9707Z" fill="white"/>
<path d="M33.6631 39.2866V34.4556H35.7729V39.2866H33.6631Z" fill="white"/>
<path d="M42.3553 37.4295H44.6979C44.6269 37.7213 44.5165 37.9855 44.3627 38.2221C44.2128 38.4509 43.992 38.6599 43.6962 38.8452C43.4004 39.0306 43.006 39.1765 42.5091 39.2869C42.0122 39.3895 41.4049 39.4407 40.6911 39.4407C39.3621 39.4407 38.3643 39.2238 37.7018 38.79C37.0393 38.3523 36.708 37.7134 36.708 36.8773C36.708 36.0413 37.0314 35.4142 37.6821 34.9765C38.3367 34.5348 39.3424 34.314 40.6911 34.314C41.2117 34.314 41.681 34.3416 42.1029 34.4007C42.5289 34.4559 42.9153 34.5545 43.2663 34.7044C43.6134 34.8503 43.9091 35.0554 44.1536 35.3196C44.3942 35.5799 44.5717 35.9151 44.686 36.3213H42.3356C42.2962 36.2069 42.241 36.1044 42.1779 36.0019C42.1187 35.9033 42.028 35.8086 41.9018 35.7179C41.7835 35.6233 41.6258 35.5483 41.4246 35.4892C41.2314 35.4261 40.9908 35.3945 40.7069 35.3945C40.3874 35.3945 40.1114 35.434 39.8827 35.5089C39.6579 35.5838 39.4765 35.6903 39.3424 35.8283C39.2083 35.9624 39.1058 36.1202 39.0427 36.3016C38.9835 36.479 38.9559 36.6683 38.9559 36.8773C38.9559 37.0864 38.9835 37.2835 39.0427 37.4571C39.1018 37.6345 39.1965 37.7883 39.3266 37.9224C39.4607 38.0565 39.6421 38.163 39.8669 38.2419C40.0956 38.3168 40.3796 38.3562 40.7108 38.3562C41.1762 38.3562 41.5548 38.2734 41.8387 38.1117C42.1227 37.9461 42.3001 37.7173 42.3711 37.4295H42.3553Z" fill="white"/>
<path d="M52.3125 35.8713H49.9187C49.8832 35.6899 49.761 35.5518 49.548 35.4572C49.339 35.3586 49.0077 35.3073 48.5463 35.3073C47.8128 35.3073 47.446 35.4651 47.446 35.7806C47.446 35.9383 47.6038 36.0369 47.9153 36.0763C48.0573 36.0961 48.2782 36.1197 48.5818 36.1591C48.8894 36.1946 49.059 36.2144 49.0866 36.2144C50.0015 36.3287 50.5379 36.3918 50.6917 36.4115C51.3187 36.4944 51.788 36.6403 52.1035 36.8493C52.4229 37.0622 52.5846 37.3738 52.5846 37.7839C52.5846 38.1625 52.4466 38.4701 52.1666 38.7028C51.8945 38.9315 51.5553 39.1011 51.1531 39.2037C50.7587 39.3062 50.3801 39.3693 50.0173 39.393C49.6624 39.4206 49.2996 39.4324 48.9249 39.4324C48.3452 39.4324 47.8325 39.4087 47.3908 39.3575C46.9531 39.3141 46.5666 39.2313 46.2275 39.113C45.8962 38.9907 45.632 38.8251 45.4387 38.6121C45.2415 38.3952 45.1311 38.1231 45.1035 37.7918H47.6038C47.6353 37.989 47.7497 38.1389 47.9508 38.2375C48.152 38.336 48.5108 38.3873 49.0235 38.3873C49.1734 38.3873 49.3075 38.3794 49.4337 38.3676C49.5638 38.3518 49.6821 38.3242 49.7886 38.2848C49.8951 38.2453 49.9779 38.1901 50.037 38.131C50.1041 38.0639 50.1356 37.9811 50.1356 37.8825C50.1356 37.7563 50.0607 37.6617 49.9148 37.6065C49.7728 37.5473 49.5125 37.496 49.1339 37.4527L47.0241 37.2082C46.397 37.1372 45.9396 36.9834 45.6477 36.7546C45.3599 36.522 45.2139 36.2144 45.2139 35.8397C45.2139 35.6583 45.2573 35.4808 45.348 35.3073C45.4427 35.1299 45.6083 34.9682 45.8449 34.8222C46.0855 34.6684 46.4286 34.5462 46.8663 34.4515C47.3041 34.3569 47.8522 34.3096 48.5069 34.3096C49.7018 34.3096 50.6168 34.4318 51.2556 34.6763C51.8984 34.9208 52.2534 35.3191 52.3204 35.8752L52.3125 35.8713Z" fill="white"/>
</g>
<defs>
<clipPath id="clip0_3437_106">
<rect width="111.606" height="56" fill="white"/>
</clipPath>
</defs>
</svg>
