<svg width="96" height="48" viewBox="0 0 96 48" fill="none" xmlns="http://www.w3.org/2000/svg">
<g clip-path="url(#clip0_2194_187)">
<path d="M11.6787 40.0327C11.8342 37.2237 12.3649 33.0288 14.1666 28.3099C19.1525 15.2553 30.1689 8.88343 31.6393 8.07216C36.5542 5.36794 41.0263 4.3809 43.0072 4.01583C44.5993 3.72174 48.2398 3.16061 52.9012 3.52568C60.2669 4.10371 65.601 6.63554 67.2979 7.49413C77.1074 12.453 81.9412 20.4203 83.5232 23.3172C87.681 30.933 88.2286 38.0857 88.2489 41.7702H73.45C73.4567 38.8868 73.0748 32.782 69.3936 26.346C68.2781 24.3922 65.5638 20.1499 60.4798 16.5398C57.8297 14.657 52.57 11.5674 45.2787 10.9217C42.659 10.6919 34.6781 10.337 26.7379 15.2451C17.3407 21.0524 14.2781 30.3482 13.1424 33.7995C12.3041 36.3448 11.895 38.5353 11.6787 40.0293V40.0327Z" fill="#174EA2"/>
<path d="M46.6646 34.6818C47.7936 34.1004 58.1542 28.6683 72.4527 21.1742C72.8381 20.9714 73.1795 20.9883 73.2505 21.1134C73.3181 21.2283 73.1728 21.4987 72.8787 21.7218C65.0905 27.7353 57.2989 33.7488 49.5108 39.7624C49.1626 40.0767 48.6387 40.4858 47.9288 40.8204C47.3271 41.1077 46.4888 41.5032 45.4105 41.3883C44.9744 41.341 44.2646 41.2666 43.6933 40.719C42.6927 39.759 43.0274 38.2108 43.068 38.0215C43.2471 37.2373 43.6967 36.7201 43.8691 36.5274C44.0111 36.3686 44.2409 36.1421 45.184 35.5472C46.1001 34.9691 46.6646 34.6784 46.6646 34.6784V34.6818Z" fill="white"/>
<path d="M9.44777 18.9195V20.9646H12.5272C13.0106 20.9646 13.3588 20.8834 13.5717 20.7246C13.7948 20.5589 13.9064 20.2953 13.9064 19.9403C13.9064 19.5854 13.7948 19.3251 13.5717 19.1663C13.3588 19.0006 13.0106 18.9161 12.5272 18.9161H9.44777V18.9195ZM5.99313 25.3522V17.2395H13.663C14.3492 17.2395 14.9374 17.3071 15.4207 17.4423C15.9143 17.5708 16.3131 17.7567 16.6106 18.0001C16.9114 18.2434 17.1278 18.5274 17.263 18.8519C17.4083 19.1764 17.4793 19.5415 17.4793 19.9437C17.4793 20.2987 17.4151 20.6367 17.29 20.9544C17.165 21.2722 16.9554 21.5595 16.6647 21.8164C16.3841 22.0733 16.0055 22.2795 15.5323 22.4316C15.059 22.577 14.4878 22.648 13.8185 22.648H9.44777V25.3522H5.98975H5.99313Z" fill="white"/>
<path d="M22.3135 19.0581V20.8294H25.6397C26.0554 20.8294 26.3766 20.7482 26.5997 20.5894C26.8228 20.4305 26.9343 20.2108 26.9343 19.9302C26.9343 19.6496 26.8228 19.4468 26.5997 19.2947C26.3766 19.1358 26.0588 19.0547 25.6397 19.0547H22.3135V19.0581ZM18.8554 25.3522V17.2395H27.1642C28.3844 17.2395 29.2667 17.4356 29.8075 17.8311C30.3585 18.2265 30.6357 18.7809 30.6357 19.5009C30.6357 20.0147 30.4802 20.4305 30.1726 20.7381C29.8718 21.0491 29.4763 21.2519 28.9828 21.3533V21.377C29.3411 21.4682 29.625 21.6305 29.838 21.8671C30.0611 22.1003 30.1929 22.4249 30.2301 22.8339C30.2774 23.3274 30.318 23.6891 30.345 23.9257C30.3754 24.1589 30.4092 24.3719 30.4464 24.5612C30.4937 24.7437 30.5546 24.8992 30.6222 25.0277C30.6898 25.1494 30.7777 25.2575 30.8825 25.3556H27.0932C27.0053 25.1967 26.9478 25.0175 26.9174 24.8215C26.8971 24.6254 26.887 24.4023 26.887 24.1522C26.887 23.5539 26.7721 23.155 26.5388 22.9589C26.3157 22.7527 25.9642 22.6513 25.4774 22.6513H22.3101V25.3556H18.8521L18.8554 25.3522Z" fill="white"/>
<path d="M32.3018 25.3522V17.2395H35.7598V25.3522H32.3018Z" fill="white"/>
<path d="M37.8457 25.3522V17.2395H42.8992L45.2654 22.5905H45.2958L47.662 17.2395H52.7156V25.3522H49.4637V19.2846H49.4367L46.7054 25.3522H43.8592L41.128 19.2846H41.0975V25.3522H37.8457Z" fill="white"/>
<path d="M54.7642 25.3522V17.2395H65.1484V18.9905H58.2222V20.4575H64.7157V22.1375H58.2222V23.6046H65.1484V25.3556H54.7642V25.3522Z" fill="white"/>
<path d="M10.0227 32.0823H12.0306C11.9697 32.3324 11.8751 32.5589 11.7433 32.7617C11.6182 32.9578 11.4255 33.1369 11.172 33.2958C10.9185 33.4547 10.5804 33.5798 10.1545 33.6744C9.72861 33.7623 9.20804 33.8062 8.59621 33.8062C7.45706 33.8062 6.60185 33.6203 6.03396 33.2485C5.46607 32.8733 5.18213 32.3257 5.18213 31.609C5.18213 30.8924 5.45931 30.355 6.01706 29.9798C6.57818 29.6012 7.44016 29.4119 8.59621 29.4119C9.04241 29.4119 9.44466 29.4355 9.80635 29.4862C10.1714 29.5336 10.5027 29.6181 10.8035 29.7465C11.101 29.8716 11.3545 30.0474 11.5641 30.2738C11.7703 30.4969 11.9224 30.7843 12.0204 31.1324H10.0058C9.97199 31.0344 9.92466 30.9465 9.87058 30.8586C9.81988 30.7741 9.74213 30.693 9.63396 30.6152C9.53255 30.5341 9.39734 30.4699 9.22495 30.4192C9.05931 30.3651 8.85311 30.3381 8.60973 30.3381C8.33593 30.3381 8.09931 30.3719 7.90326 30.4361C7.71058 30.5003 7.55509 30.5916 7.44016 30.7099C7.32523 30.8248 7.23734 30.96 7.18326 31.1155C7.13255 31.2676 7.10551 31.4299 7.10551 31.609C7.10551 31.7882 7.12917 31.9572 7.18326 32.106C7.23396 32.2581 7.31509 32.3899 7.42664 32.5048C7.54157 32.6198 7.69706 32.711 7.88973 32.7786C8.08579 32.8429 8.32917 32.8767 8.61311 32.8767C9.01199 32.8767 9.33649 32.8057 9.57988 32.6671C9.82326 32.5251 9.97537 32.329 10.0362 32.0823H10.0227Z" fill="white"/>
<path d="M12.747 33.6743V29.5334H14.5555V32.7109H17.8614V33.6743H12.7437H12.747Z" fill="white"/>
<path d="M18.5103 33.6743V29.5334H20.3187V33.6743H18.5103Z" fill="white"/>
<path d="M21.4038 33.6743V29.5334H23.4861L26.0044 32.1261H26.0213V29.5334H27.7689V33.6743H25.7678L23.1683 31.058H23.1548V33.6743H21.4072H21.4038Z" fill="white"/>
<path d="M28.854 33.6743V29.5334H30.6625V33.6743H28.854Z" fill="white"/>
<path d="M36.3044 32.0823H38.3123C38.2515 32.3324 38.1568 32.5589 38.025 32.7617C37.8965 32.9578 37.7072 33.1369 37.4537 33.2958C37.2002 33.4547 36.8622 33.5798 36.4363 33.6744C36.0103 33.7623 35.4898 33.8062 34.878 33.8062C33.7388 33.8062 32.8836 33.6203 32.3157 33.2485C31.7478 32.8733 31.4639 32.3257 31.4639 31.609C31.4639 30.8924 31.7411 30.355 32.2988 29.9798C32.8599 29.6012 33.7219 29.4119 34.878 29.4119C35.3241 29.4119 35.7264 29.4355 36.0881 29.4862C36.4532 29.5336 36.7844 29.6181 37.0853 29.7465C37.3827 29.8716 37.6363 30.0474 37.8458 30.2738C38.052 30.4969 38.2041 30.7843 38.3022 31.1324H36.2875C36.2537 31.0344 36.2064 30.9465 36.1523 30.8586C36.1016 30.7741 36.0239 30.693 35.9157 30.6152C35.8143 30.5341 35.6791 30.4699 35.5067 30.4192C35.341 30.3651 35.1349 30.3381 34.8915 30.3381C34.6177 30.3381 34.381 30.3719 34.185 30.4361C33.9923 30.5003 33.8368 30.5916 33.7219 30.7099C33.607 30.8248 33.5191 30.96 33.465 31.1155C33.4143 31.2676 33.3906 31.4299 33.3906 31.609C33.3906 31.7882 33.4143 31.9572 33.465 32.106C33.5157 32.2581 33.5968 32.3899 33.7084 32.5048C33.8233 32.6198 33.9788 32.711 34.1715 32.7786C34.3675 32.8429 34.6109 32.8767 34.8949 32.8767C35.2937 32.8767 35.6182 32.8057 35.8616 32.6671C36.105 32.5251 36.2571 32.329 36.318 32.0823H36.3044Z" fill="white"/>
<path d="M44.8393 30.747H42.7875C42.7571 30.5915 42.6523 30.4732 42.4697 30.3921C42.2906 30.3076 42.0066 30.2637 41.6111 30.2637C40.9824 30.2637 40.668 30.3989 40.668 30.6693C40.668 30.8045 40.8033 30.889 41.0703 30.9228C41.192 30.9397 41.3813 30.96 41.6416 30.9938C41.9052 31.0242 42.0506 31.0411 42.0742 31.0411C42.8585 31.1392 43.3182 31.1932 43.45 31.2101C43.9875 31.2811 44.3897 31.4062 44.6602 31.5853C44.934 31.7679 45.0725 32.0349 45.0725 32.3865C45.0725 32.711 44.9542 32.9746 44.7142 33.1741C44.481 33.3701 44.1903 33.5155 43.8455 33.6034C43.5075 33.6913 43.183 33.7453 42.872 33.7656C42.5678 33.7893 42.2568 33.7994 41.9356 33.7994C41.4387 33.7994 40.9993 33.7792 40.6207 33.7352C40.2455 33.698 39.9142 33.627 39.6235 33.5256C39.3396 33.4208 39.1131 33.2789 38.9475 33.0963C38.7785 32.9104 38.6838 32.6772 38.6602 32.3932H40.8033C40.8303 32.5623 40.9283 32.6907 41.1007 32.7752C41.2731 32.8597 41.5807 32.9037 42.0202 32.9037C42.1486 32.9037 42.2635 32.8969 42.3717 32.8868C42.4833 32.8732 42.5847 32.8496 42.6759 32.8158C42.7672 32.782 42.8382 32.7346 42.8889 32.6839C42.9464 32.6265 42.9734 32.5555 42.9734 32.471C42.9734 32.3628 42.9092 32.2817 42.7841 32.2344C42.6624 32.1837 42.4393 32.1397 42.1148 32.1025L40.3064 31.893C39.7689 31.8321 39.3768 31.7003 39.1266 31.5042C38.8799 31.3048 38.7548 31.0411 38.7548 30.72C38.7548 30.5645 38.792 30.4124 38.8697 30.2637C38.9509 30.1115 39.0928 29.973 39.2956 29.8479C39.5018 29.7161 39.7959 29.6113 40.1711 29.5301C40.5464 29.449 41.0162 29.4084 41.5773 29.4084C42.6016 29.4084 43.3858 29.5132 43.9334 29.7228C44.4844 29.9324 44.7886 30.2738 44.8461 30.7504L44.8393 30.747Z" fill="white"/>
</g>
<defs>
<clipPath id="clip0_2194_187">
<rect width="95.662" height="48" fill="white"/>
</clipPath>
</defs>
</svg>
