<svg width="96" height="48" viewBox="0 0 96 48" fill="none" xmlns="http://www.w3.org/2000/svg">
<g clip-path="url(#clip0_2042_14491)">
<path d="M11.6787 40.0327C11.8342 37.2237 12.3649 33.0288 14.1666 28.3099C19.1525 15.2553 30.1689 8.88343 31.6393 8.07216C36.5542 5.36794 41.0263 4.3809 43.0072 4.01583C44.5993 3.72174 48.2398 3.16061 52.9012 3.52568C60.2669 4.10371 65.601 6.63554 67.2979 7.49413C77.1074 12.453 81.9412 20.4203 83.5232 23.3172C87.681 30.933 88.2286 38.0857 88.2489 41.7702H73.45C73.4567 38.8868 73.0748 32.782 69.3936 26.346C68.2781 24.3922 65.5638 20.1499 60.4798 16.5398C57.8297 14.657 52.57 11.5674 45.2787 10.9217C42.659 10.6919 34.6781 10.337 26.7379 15.2451C17.3407 21.0524 14.2781 30.3482 13.1424 33.7995C12.3041 36.3448 11.895 38.5353 11.6787 40.0293V40.0327Z" fill="white"/>
<path d="M46.6646 34.6816C47.7936 34.1002 58.1542 28.668 72.4527 21.174C72.8381 20.9711 73.1795 20.988 73.2505 21.1131C73.3181 21.228 73.1728 21.4985 72.8787 21.7216C65.0905 27.7351 57.2989 33.7486 49.5108 39.7621C49.1626 40.0765 48.6387 40.4855 47.9288 40.8202C47.3271 41.1075 46.4888 41.503 45.4105 41.388C44.9744 41.3407 44.2646 41.2663 43.6933 40.7187C42.6927 39.7587 43.0274 38.2106 43.068 38.0213C43.2471 37.2371 43.6967 36.7199 43.8691 36.5272C44.0111 36.3683 44.2409 36.1418 45.184 35.5469C46.1001 34.9689 46.6646 34.6782 46.6646 34.6782V34.6816Z" fill="white"/>
<path d="M9.44777 18.9193V20.9643H12.5272C13.0106 20.9643 13.3588 20.8832 13.5717 20.7243C13.7948 20.5587 13.9064 20.295 13.9064 19.9401C13.9064 19.5852 13.7948 19.3249 13.5717 19.166C13.3588 19.0004 13.0106 18.9159 12.5272 18.9159H9.44777V18.9193ZM5.99313 25.3519V17.2393H13.663C14.3492 17.2393 14.9374 17.3069 15.4207 17.4421C15.9143 17.5705 16.3131 17.7564 16.6106 17.9998C16.9114 18.2432 17.1278 18.5271 17.263 18.8517C17.4083 19.1762 17.4793 19.5412 17.4793 19.9435C17.4793 20.2984 17.4151 20.6364 17.29 20.9542C17.165 21.2719 16.9554 21.5593 16.6647 21.8162C16.3841 22.0731 16.0055 22.2793 15.5323 22.4314C15.059 22.5767 14.4878 22.6477 13.8185 22.6477H9.44777V25.3519H5.98975H5.99313Z" fill="white"/>
<path d="M22.3135 19.0578V20.8291H25.6397C26.0554 20.8291 26.3766 20.748 26.5997 20.5891C26.8228 20.4302 26.9343 20.2105 26.9343 19.93C26.9343 19.6494 26.8228 19.4466 26.5997 19.2945C26.3766 19.1356 26.0588 19.0545 25.6397 19.0545H22.3135V19.0578ZM18.8554 25.3519V17.2393H27.1642C28.3844 17.2393 29.2667 17.4353 29.8075 17.8308C30.3585 18.2263 30.6357 18.7807 30.6357 19.5007C30.6357 20.0145 30.4802 20.4302 30.1726 20.7378C29.8718 21.0488 29.4763 21.2517 28.9828 21.3531V21.3767C29.3411 21.468 29.625 21.6302 29.838 21.8669C30.0611 22.1001 30.1929 22.4246 30.2301 22.8336C30.2774 23.3271 30.318 23.6888 30.345 23.9255C30.3754 24.1587 30.4092 24.3717 30.4464 24.5609C30.4937 24.7435 30.5546 24.899 30.6222 25.0274C30.6898 25.1491 30.7777 25.2573 30.8825 25.3553H27.0932C27.0053 25.1964 26.9478 25.0173 26.9174 24.8212C26.8971 24.6252 26.887 24.4021 26.887 24.1519C26.887 23.5536 26.7721 23.1548 26.5388 22.9587C26.3157 22.7525 25.9642 22.6511 25.4774 22.6511H22.3101V25.3553H18.8521L18.8554 25.3519Z" fill="white"/>
<path d="M32.3018 25.3519V17.2393H35.7598V25.3519H32.3018Z" fill="white"/>
<path d="M37.8457 25.3519V17.2393H42.8992L45.2654 22.5902H45.2958L47.662 17.2393H52.7156V25.3519H49.4637V19.2843H49.4367L46.7054 25.3519H43.8592L41.128 19.2843H41.0975V25.3519H37.8457Z" fill="white"/>
<path d="M54.7642 25.3519V17.2393H65.1484V18.9902H58.2222V20.4573H64.7157V22.1373H58.2222V23.6043H65.1484V25.3553H54.7642V25.3519Z" fill="white"/>
<path d="M10.0227 32.082H12.0306C11.9697 32.3322 11.8751 32.5587 11.7433 32.7615C11.6182 32.9575 11.4255 33.1367 11.172 33.2956C10.9185 33.4544 10.5804 33.5795 10.1545 33.6742C9.72861 33.762 9.20804 33.806 8.59621 33.806C7.45706 33.806 6.60185 33.6201 6.03396 33.2482C5.46607 32.873 5.18213 32.3254 5.18213 31.6088C5.18213 30.8922 5.45931 30.3547 6.01706 29.9795C6.57818 29.6009 7.44016 29.4116 8.59621 29.4116C9.04241 29.4116 9.44466 29.4353 9.80635 29.486C10.1714 29.5333 10.5027 29.6178 10.8035 29.7463C11.101 29.8713 11.3545 30.0471 11.5641 30.2736C11.7703 30.4967 11.9224 30.784 12.0204 31.1322H10.0058C9.97199 31.0342 9.92466 30.9463 9.87058 30.8584C9.81988 30.7739 9.74213 30.6927 9.63396 30.615C9.53255 30.5339 9.39734 30.4696 9.22495 30.4189C9.05931 30.3649 8.85311 30.3378 8.60973 30.3378C8.33593 30.3378 8.09931 30.3716 7.90326 30.4358C7.71058 30.5001 7.55509 30.5913 7.44016 30.7096C7.32523 30.8246 7.23734 30.9598 7.18326 31.1153C7.13255 31.2674 7.10551 31.4296 7.10551 31.6088C7.10551 31.788 7.12917 31.957 7.18326 32.1057C7.23396 32.2578 7.31509 32.3896 7.42664 32.5046C7.54157 32.6195 7.69706 32.7108 7.88973 32.7784C8.08579 32.8426 8.32917 32.8764 8.61311 32.8764C9.01199 32.8764 9.33649 32.8054 9.57988 32.6668C9.82326 32.5249 9.97537 32.3288 10.0362 32.082H10.0227Z" fill="white"/>
<path d="M12.747 33.6745V29.5337H14.5555V32.7112H17.8614V33.6745H12.7437H12.747Z" fill="white"/>
<path d="M18.5103 33.6745V29.5337H20.3187V33.6745H18.5103Z" fill="white"/>
<path d="M21.4038 33.6745V29.5337H23.4861L26.0044 32.1264H26.0213V29.5337H27.7689V33.6745H25.7678L23.1683 31.0582H23.1548V33.6745H21.4072H21.4038Z" fill="white"/>
<path d="M28.854 33.6745V29.5337H30.6625V33.6745H28.854Z" fill="white"/>
<path d="M36.3044 32.082H38.3123C38.2515 32.3322 38.1568 32.5587 38.025 32.7615C37.8965 32.9575 37.7072 33.1367 37.4537 33.2956C37.2002 33.4544 36.8622 33.5795 36.4363 33.6742C36.0103 33.762 35.4898 33.806 34.878 33.806C33.7388 33.806 32.8836 33.6201 32.3157 33.2482C31.7478 32.873 31.4639 32.3254 31.4639 31.6088C31.4639 30.8922 31.7411 30.3547 32.2988 29.9795C32.8599 29.6009 33.7219 29.4116 34.878 29.4116C35.3241 29.4116 35.7264 29.4353 36.0881 29.486C36.4532 29.5333 36.7844 29.6178 37.0853 29.7463C37.3827 29.8713 37.6363 30.0471 37.8458 30.2736C38.052 30.4967 38.2041 30.784 38.3022 31.1322H36.2875C36.2537 31.0342 36.2064 30.9463 36.1523 30.8584C36.1016 30.7739 36.0239 30.6927 35.9157 30.615C35.8143 30.5339 35.6791 30.4696 35.5067 30.4189C35.341 30.3649 35.1349 30.3378 34.8915 30.3378C34.6177 30.3378 34.381 30.3716 34.185 30.4358C33.9923 30.5001 33.8368 30.5913 33.7219 30.7096C33.607 30.8246 33.5191 30.9598 33.465 31.1153C33.4143 31.2674 33.3906 31.4296 33.3906 31.6088C33.3906 31.788 33.4143 31.957 33.465 32.1057C33.5157 32.2578 33.5968 32.3896 33.7084 32.5046C33.8233 32.6195 33.9788 32.7108 34.1715 32.7784C34.3675 32.8426 34.6109 32.8764 34.8949 32.8764C35.2937 32.8764 35.6182 32.8054 35.8616 32.6668C36.105 32.5249 36.2571 32.3288 36.318 32.082H36.3044Z" fill="white"/>
<path d="M44.8393 30.7473H42.7875C42.7571 30.5918 42.6523 30.4735 42.4697 30.3924C42.2906 30.3078 42.0066 30.2639 41.6111 30.2639C40.9824 30.2639 40.668 30.3991 40.668 30.6695C40.668 30.8047 40.8033 30.8893 41.0703 30.9231C41.192 30.94 41.3813 30.9602 41.6416 30.994C41.9052 31.0245 42.0506 31.0414 42.0742 31.0414C42.8585 31.1394 43.3182 31.1935 43.45 31.2104C43.9875 31.2814 44.3897 31.4064 44.6602 31.5856C44.934 31.7681 45.0725 32.0352 45.0725 32.3867C45.0725 32.7112 44.9542 32.9749 44.7142 33.1743C44.481 33.3704 44.1903 33.5157 43.8455 33.6036C43.5075 33.6915 43.183 33.7456 42.872 33.7659C42.5678 33.7895 42.2568 33.7997 41.9356 33.7997C41.4387 33.7997 40.9993 33.7794 40.6207 33.7355C40.2455 33.6983 39.9142 33.6273 39.6235 33.5259C39.3396 33.4211 39.1131 33.2791 38.9475 33.0966C38.7785 32.9107 38.6838 32.6774 38.6602 32.3935H40.8033C40.8303 32.5625 40.9283 32.6909 41.1007 32.7755C41.2731 32.86 41.5807 32.9039 42.0202 32.9039C42.1486 32.9039 42.2635 32.8971 42.3717 32.887C42.4833 32.8735 42.5847 32.8498 42.6759 32.816C42.7672 32.7822 42.8382 32.7349 42.8889 32.6842C42.9464 32.6267 42.9734 32.5557 42.9734 32.4712C42.9734 32.3631 42.9092 32.2819 42.7841 32.2346C42.6624 32.1839 42.4393 32.14 42.1148 32.1028L40.3064 31.8932C39.7689 31.8324 39.3768 31.7005 39.1266 31.5045C38.8799 31.305 38.7548 31.0414 38.7548 30.7202C38.7548 30.5647 38.792 30.4126 38.8697 30.2639C38.9509 30.1118 39.0928 29.9732 39.2956 29.8481C39.5018 29.7163 39.7959 29.6115 40.1711 29.5304C40.5464 29.4493 41.0162 29.4087 41.5773 29.4087C42.6016 29.4087 43.3858 29.5135 43.9334 29.7231C44.4844 29.9326 44.7886 30.274 44.8461 30.7507L44.8393 30.7473Z" fill="white"/>
</g>
<defs>
<clipPath id="clip0_2042_14491">
<rect width="95.662" height="48" fill="white"/>
</clipPath>
</defs>
</svg>
