<svg width="64" height="64" viewBox="0 0 64 64" fill="none" xmlns="http://www.w3.org/2000/svg">
<rect width="63.3333" height="63.3333" rx="10.6667" fill="#E9EFFB"/>
<path d="M31.1758 24.6406V32.7799L37.5738 36.6806" stroke="#2463D8" stroke-width="2.5" stroke-linecap="round" stroke-linejoin="round"/>
<path d="M35.1678 16.3277C32.0913 15.6225 28.7786 15.8202 25.6426 17.1205C17.6083 20.449 13.7933 29.6592 17.1201 37.6935C20.4468 45.7277 29.6588 49.5427 37.6931 46.216C44.8961 43.2322 48.6901 35.5217 47.0031 28.1682" stroke="#2463D8" stroke-width="2.5" stroke-linecap="round" stroke-linejoin="round"/>
<path d="M40.85 25.112C40.2433 25.112 39.688 24.958 39.184 24.65C38.6893 24.342 38.2927 23.9313 37.994 23.418C37.7047 22.9047 37.56 22.34 37.56 21.724C37.56 20.912 37.6767 20.1793 37.91 19.526C38.1527 18.8633 38.4887 18.2333 38.918 17.636C39.2167 17.2253 39.5573 16.8193 39.94 16.418C40.3227 16.0167 40.7287 15.6107 41.158 15.2H43.328C43.0107 15.536 42.6607 15.8907 42.278 16.264C41.8953 16.628 41.5313 17.006 41.186 17.398C40.85 17.7807 40.57 18.168 40.346 18.56C40.8407 18.42 41.3167 18.406 41.774 18.518C42.2313 18.63 42.6373 18.84 42.992 19.148C43.356 19.4467 43.6407 19.82 43.846 20.268C44.0607 20.7067 44.168 21.192 44.168 21.724C44.168 22.3587 44.014 22.9327 43.706 23.446C43.4073 23.9593 43.006 24.3653 42.502 24.664C41.998 24.9627 41.4473 25.112 40.85 25.112ZM40.864 23.348C41.3027 23.348 41.676 23.194 41.984 22.886C42.292 22.5687 42.446 22.1813 42.446 21.724C42.446 21.4067 42.3713 21.1267 42.222 20.884C42.082 20.632 41.8907 20.436 41.648 20.296C41.4053 20.156 41.144 20.086 40.864 20.086C40.5747 20.086 40.3087 20.1607 40.066 20.31C39.8233 20.45 39.6273 20.646 39.478 20.898C39.338 21.1407 39.268 21.416 39.268 21.724C39.268 22.0133 39.338 22.284 39.478 22.536C39.6273 22.7787 39.8233 22.9747 40.066 23.124C40.3087 23.2733 40.5747 23.348 40.864 23.348ZM52.5786 23.53C52.2426 24.006 51.8086 24.384 51.2766 24.664C50.7539 24.9347 50.1379 25.07 49.4286 25.07C48.7006 25.07 48.0753 24.9347 47.5526 24.664C47.0393 24.384 46.6146 24.006 46.2786 23.53C45.9426 23.0633 45.6906 22.536 45.5226 21.948C45.3639 21.36 45.2846 20.744 45.2846 20.1C45.2846 19.456 45.3639 18.84 45.5226 18.252C45.6906 17.6547 45.9473 17.1227 46.2926 16.656C46.6286 16.1987 47.0579 15.83 47.5806 15.55C48.1033 15.27 48.7193 15.13 49.4286 15.13C50.1379 15.13 50.7539 15.27 51.2766 15.55C51.7993 15.83 52.2333 16.2033 52.5786 16.67C52.9239 17.1367 53.1759 17.6687 53.3346 18.266C53.4933 18.854 53.5726 19.4653 53.5726 20.1C53.5726 20.744 53.4886 21.36 53.3206 21.948C53.1619 22.5267 52.9146 23.054 52.5786 23.53ZM51.2766 17.748C51.0806 17.468 50.8286 17.2487 50.5206 17.09C50.2126 16.9313 49.8486 16.852 49.4286 16.852C48.9899 16.852 48.6213 16.9313 48.3226 17.09C48.0333 17.2487 47.7859 17.468 47.5806 17.748C47.3659 18.0467 47.2073 18.3967 47.1046 18.798C47.0113 19.19 46.9646 19.624 46.9646 20.1C46.9646 20.5853 47.0159 21.024 47.1186 21.416C47.2213 21.808 47.3753 22.1533 47.5806 22.452C47.7766 22.732 48.0239 22.956 48.3226 23.124C48.6213 23.2827 48.9899 23.362 49.4286 23.362C49.8486 23.362 50.2126 23.2827 50.5206 23.124C50.8286 22.9653 51.0806 22.7413 51.2766 22.452C51.6779 21.8547 51.8786 21.0707 51.8786 20.1C51.8786 19.624 51.8319 19.1853 51.7386 18.784C51.6453 18.3827 51.4913 18.0373 51.2766 17.748Z" fill="#2463D8"/>
</svg>
