<svg width="64" height="64" viewBox="0 0 64 64" fill="none" xmlns="http://www.w3.org/2000/svg">
<rect width="63.3333" height="63.3333" rx="10.6667" fill="#E9EFFB"/>
<path d="M31.1758 24.6406V32.7799L37.5738 36.6806" stroke="#2463D8" stroke-width="2.5" stroke-linecap="round" stroke-linejoin="round"/>
<path d="M35.1678 16.3277C32.0913 15.6225 28.7786 15.8202 25.6426 17.1205C17.6083 20.449 13.7933 29.6592 17.1201 37.6935C20.4468 45.7277 29.6588 49.5427 37.6931 46.216C44.8961 43.2322 48.6901 35.5217 47.0031 28.1682" stroke="#2463D8" stroke-width="2.5" stroke-linecap="round" stroke-linejoin="round"/>
<path d="M41.452 25H39.786V17.272L38.708 18.616L37.56 17.51L39.59 15.2H41.452V25ZM49.8716 23.53C49.5356 24.006 49.1016 24.384 48.5696 24.664C48.0469 24.9347 47.4309 25.07 46.7216 25.07C45.9936 25.07 45.3682 24.9347 44.8456 24.664C44.3322 24.384 43.9076 24.006 43.5716 23.53C43.2356 23.0633 42.9836 22.536 42.8156 21.948C42.6569 21.36 42.5776 20.744 42.5776 20.1C42.5776 19.456 42.6569 18.84 42.8156 18.252C42.9836 17.6547 43.2402 17.1227 43.5856 16.656C43.9216 16.1987 44.3509 15.83 44.8736 15.55C45.3962 15.27 46.0122 15.13 46.7216 15.13C47.4309 15.13 48.0469 15.27 48.5696 15.55C49.0922 15.83 49.5262 16.2033 49.8716 16.67C50.2169 17.1367 50.4689 17.6687 50.6276 18.266C50.7862 18.854 50.8656 19.4653 50.8656 20.1C50.8656 20.744 50.7816 21.36 50.6136 21.948C50.4549 22.5267 50.2076 23.054 49.8716 23.53ZM48.5696 17.748C48.3736 17.468 48.1216 17.2487 47.8136 17.09C47.5056 16.9313 47.1416 16.852 46.7216 16.852C46.2829 16.852 45.9142 16.9313 45.6156 17.09C45.3262 17.2487 45.0789 17.468 44.8736 17.748C44.6589 18.0467 44.5002 18.3967 44.3976 18.798C44.3042 19.19 44.2576 19.624 44.2576 20.1C44.2576 20.5853 44.3089 21.024 44.4116 21.416C44.5142 21.808 44.6682 22.1533 44.8736 22.452C45.0696 22.732 45.3169 22.956 45.6156 23.124C45.9142 23.2827 46.2829 23.362 46.7216 23.362C47.1416 23.362 47.5056 23.2827 47.8136 23.124C48.1216 22.9653 48.3736 22.7413 48.5696 22.452C48.9709 21.8547 49.1716 21.0707 49.1716 20.1C49.1716 19.624 49.1249 19.1853 49.0316 18.784C48.9382 18.3827 48.7842 18.0373 48.5696 17.748Z" fill="#2463D8"/>
</svg>
