<svg width="64" height="64" viewBox="0 0 64 64" fill="none" xmlns="http://www.w3.org/2000/svg">
<rect width="63.3333" height="63.3333" rx="10.6667" fill="#E9EFFB"/>
<path d="M31.1758 24.6406V32.7799L37.5738 36.6806" stroke="#2463D8" stroke-width="2.5" stroke-linecap="round" stroke-linejoin="round"/>
<path d="M35.1678 16.3277C32.0913 15.6225 28.7786 15.8202 25.6426 17.1205C17.6083 20.449 13.7933 29.6592 17.1201 37.6935C20.4468 45.7277 29.6588 49.5427 37.6931 46.216C44.8961 43.2322 48.6901 35.5217 47.0031 28.1682" stroke="#2463D8" stroke-width="2.5" stroke-linecap="round" stroke-linejoin="round"/>
<path d="M41.452 25H39.786V17.272L38.708 18.616L37.56 17.51L39.59 15.2H41.452V25ZM45.7136 25.098C45.0696 25.098 44.5049 24.972 44.0196 24.72C43.5436 24.468 43.0629 24.0573 42.5776 23.488L43.7816 22.242C44.1082 22.6153 44.4069 22.8953 44.6776 23.082C44.9576 23.2593 45.3029 23.348 45.7136 23.348C46.0029 23.348 46.2782 23.2733 46.5396 23.124C46.8009 22.9653 47.0156 22.76 47.1836 22.508C47.3516 22.256 47.4356 21.9853 47.4356 21.696C47.4356 21.276 47.3282 20.9213 47.1136 20.632C46.8989 20.3333 46.6329 20.128 46.3156 20.016C46.0076 19.8947 45.6996 19.8853 45.3916 19.988C45.0836 20.0813 44.8362 20.3147 44.6496 20.688L43.2636 20.128L43.6836 15.2H48.8076V16.95H45.2656L45.0836 18.378C45.7556 18.21 46.3389 18.182 46.8336 18.294C47.3376 18.406 47.7529 18.6253 48.0796 18.952C48.4156 19.2693 48.6676 19.666 48.8356 20.142C49.0036 20.618 49.0876 21.136 49.0876 21.696C49.0876 22.172 48.9942 22.6153 48.8076 23.026C48.6302 23.4367 48.3829 23.8007 48.0656 24.118C47.7482 24.426 47.3842 24.6687 46.9736 24.846C46.5722 25.014 46.1522 25.098 45.7136 25.098Z" fill="#2463D8"/>
</svg>
