<svg width="64" height="64" viewBox="0 0 64 64" fill="none" xmlns="http://www.w3.org/2000/svg">
<rect width="63.3333" height="63.3333" rx="10.6667" fill="#E9EFFB"/>
<path d="M31.1758 24.6406V32.7799L37.5738 36.6806" stroke="#2463D8" stroke-width="2.5" stroke-linecap="round" stroke-linejoin="round"/>
<path d="M35.1678 16.3277C32.0913 15.6225 28.7786 15.8202 25.6426 17.1205C17.6083 20.449 13.7933 29.6592 17.1201 37.6935C20.4468 45.7277 29.6588 49.5427 37.6931 46.216C44.8961 43.2322 48.6901 35.5217 47.0031 28.1682" stroke="#2463D8" stroke-width="2.5" stroke-linecap="round" stroke-linejoin="round"/>
<path d="M40.878 25.098C40.038 25.098 39.338 24.86 38.778 24.384C38.218 23.8987 37.812 23.2733 37.56 22.508L39.212 22.004C39.38 22.424 39.6087 22.7507 39.898 22.984C40.1967 23.2173 40.5233 23.334 40.878 23.334C41.3073 23.334 41.6573 23.208 41.928 22.956C42.1987 22.704 42.334 22.4147 42.334 22.088C42.334 21.8733 42.2873 21.6493 42.194 21.416C42.11 21.1827 41.9607 20.9867 41.746 20.828C41.5407 20.6693 41.2513 20.59 40.878 20.59H39.66V19.358H40.962C41.3073 19.358 41.564 19.2833 41.732 19.134C41.9 18.9847 42.012 18.8027 42.068 18.588C42.1333 18.3733 42.166 18.1773 42.166 18C42.166 17.6827 42.0447 17.426 41.802 17.23C41.5687 17.0247 41.2887 16.922 40.962 16.922C40.57 16.922 40.2573 17.0247 40.024 17.23C39.8 17.4353 39.6367 17.7527 39.534 18.182L37.826 17.846C38.0407 16.978 38.4187 16.3153 38.96 15.858C39.5013 15.3913 40.1687 15.158 40.962 15.158C41.494 15.158 41.9793 15.284 42.418 15.536C42.866 15.788 43.2253 16.1287 43.496 16.558C43.7667 16.9873 43.902 17.468 43.902 18C43.902 18.392 43.8087 18.756 43.622 19.092C43.4353 19.4187 43.1927 19.708 42.894 19.96C43.1927 20.2307 43.4587 20.5433 43.692 20.898C43.9347 21.2527 44.056 21.6493 44.056 22.088C44.056 22.648 43.9113 23.1567 43.622 23.614C43.3327 24.062 42.9453 24.4213 42.46 24.692C41.984 24.9627 41.4567 25.098 40.878 25.098ZM48.3112 25.098C47.6672 25.098 47.1026 24.972 46.6172 24.72C46.1412 24.468 45.6606 24.0573 45.1752 23.488L46.3792 22.242C46.7059 22.6153 47.0046 22.8953 47.2752 23.082C47.5552 23.2593 47.9006 23.348 48.3112 23.348C48.6006 23.348 48.8759 23.2733 49.1372 23.124C49.3986 22.9653 49.6132 22.76 49.7812 22.508C49.9492 22.256 50.0332 21.9853 50.0332 21.696C50.0332 21.276 49.9259 20.9213 49.7112 20.632C49.4966 20.3333 49.2306 20.128 48.9132 20.016C48.6052 19.8947 48.2972 19.8853 47.9892 19.988C47.6812 20.0813 47.4339 20.3147 47.2472 20.688L45.8612 20.128L46.2812 15.2H51.4052V16.95H47.8632L47.6812 18.378C48.3532 18.21 48.9366 18.182 49.4312 18.294C49.9352 18.406 50.3506 18.6253 50.6772 18.952C51.0132 19.2693 51.2652 19.666 51.4332 20.142C51.6012 20.618 51.6852 21.136 51.6852 21.696C51.6852 22.172 51.5919 22.6153 51.4052 23.026C51.2279 23.4367 50.9806 23.8007 50.6632 24.118C50.3459 24.426 49.9819 24.6687 49.5712 24.846C49.1699 25.014 48.7499 25.098 48.3112 25.098Z" fill="#2463D8"/>
</svg>
