<svg width="42" height="42" viewBox="0 0 42 42" fill="none" xmlns="http://www.w3.org/2000/svg">
<path fill-rule="evenodd" clip-rule="evenodd" d="M10.472 36.75H7C6.034 36.75 5.25 35.966 5.25 35V24.5C5.25 23.534 6.034 22.75 7 22.75H10.472C11.438 22.75 12.222 23.534 12.222 24.5V35C12.222 35.966 11.438 36.75 10.472 36.75Z" stroke="white" stroke-width="2" stroke-linecap="round" stroke-linejoin="round"/>
<path d="M22.6807 29.7504H26.7477C27.5019 29.7504 28.2352 29.5054 28.8389 29.0504L33.0494 25.8794C34.1012 25.0884 35.5712 25.1934 36.5004 26.1261V26.1261C37.5312 27.1621 37.5312 28.8404 36.5004 29.8746L32.8884 33.5024C31.9154 34.4789 30.6764 35.1456 29.3254 35.4169L24.2172 36.4424C23.2057 36.6454 22.1609 36.6209 21.1582 36.3689L16.5399 35.2104C15.9887 35.0704 15.4199 35.0004 14.8494 35.0004H12.2227" stroke="white" stroke-width="2" stroke-linecap="round" stroke-linejoin="round"/>
<path d="M22.6807 29.75H25.2689C26.7267 29.75 27.9097 28.5635 27.9097 27.0987V26.5685C27.9097 25.3522 27.0854 24.2917 25.9094 23.9977L21.9142 22.995C21.2649 22.8322 20.5982 22.75 19.9297 22.75V22.75C18.3144 22.75 16.7342 23.2295 15.3902 24.1307L12.2227 26.25" stroke="white" stroke-width="2" stroke-linecap="round" stroke-linejoin="round"/>
<path fill-rule="evenodd" clip-rule="evenodd" d="M26.7538 6.40618L26.1431 7.05893L25.5306 6.40618C24.1883 4.97468 21.9623 4.85743 20.4783 6.13843V6.13843C18.9611 7.44743 18.7808 9.71718 20.0286 11.2887C21.8136 13.5357 23.8593 15.7547 26.1431 17.4994C28.4846 15.7109 30.5741 13.4254 32.3906 11.1207C33.5701 9.62443 33.3268 7.45268 31.8883 6.20843L31.8218 6.15068C30.3238 4.85743 28.0961 4.97468 26.7538 6.40618V6.40618Z" stroke="white" stroke-width="2" stroke-linecap="round" stroke-linejoin="round"/>
</svg>
