<svg width="42" height="42" viewBox="0 0 42 42" fill="none" xmlns="http://www.w3.org/2000/svg">
<path d="M41.2903 37.2097L39.3215 31.7235C40.0751 30.1363 40.4652 28.4011 40.4634 26.6441C40.4626 24.8018 40.0336 22.985 39.2102 21.337C38.3867 19.6889 37.1914 18.2549 35.7187 17.1481C34.246 16.0414 32.5361 15.2921 30.7241 14.9595C28.9121 14.627 27.0475 14.7202 25.2778 15.2319C25.2534 12.0816 23.9786 9.07008 21.7338 6.85972C19.489 4.64937 16.458 3.4213 13.3078 3.44567C10.1575 3.47004 7.14591 4.74485 4.93556 6.98966C2.72521 9.23447 1.49714 12.2654 1.52151 15.4157C1.51493 17.1724 1.90291 18.9083 2.65682 20.495L0.688068 25.9879C0.651597 26.1007 0.646372 26.2213 0.672948 26.3368C0.699525 26.4524 0.75691 26.5586 0.839006 26.6441C0.927573 26.7323 1.03947 26.7933 1.16153 26.82C1.2836 26.8468 1.41076 26.8381 1.52807 26.795L6.45651 25.0297C8.47576 26.4973 10.91 27.2834 13.4062 27.2741C14.5166 27.2705 15.6211 27.1115 16.6874 26.8016C16.7306 29.9257 18.0015 32.9073 20.2255 35.1018C22.4494 37.2963 25.4477 38.5274 28.5721 38.5288C31.0661 38.5371 33.498 37.751 35.5153 36.2844L40.4503 38.0497C40.5637 38.0854 40.6846 38.0895 40.8002 38.0618C40.9158 38.0341 41.0216 37.9754 41.1065 37.8922C41.1991 37.8079 41.2656 37.6988 41.2981 37.5778C41.3307 37.4569 41.3279 37.3292 41.2903 37.2097ZM6.96182 23.8025C6.87527 23.7362 6.77355 23.6924 6.66584 23.6752C6.55814 23.658 6.44785 23.668 6.34494 23.7041L2.40744 25.1216L3.99557 20.6788C4.03078 20.5969 4.04893 20.5087 4.04893 20.4196C4.04893 20.3304 4.03078 20.2422 3.99557 20.1604C3.23676 18.6936 2.83857 17.0671 2.83401 15.4157C2.83679 13.0324 3.64575 10.7202 5.12932 8.85499C6.6129 6.9898 8.68384 5.68136 11.0054 5.14244C13.3269 4.60352 15.7625 4.86582 17.916 5.88669C20.0696 6.90755 21.8144 8.62694 22.8668 10.7652C23.9193 12.9035 24.2173 15.335 23.7126 17.6642C23.2079 19.9934 21.93 22.0834 20.0869 23.5942C18.2437 25.105 15.9436 25.9479 13.5607 25.9857C11.1777 26.0236 8.85202 25.2541 6.96182 23.8025ZM35.6268 34.9588C35.523 34.9215 35.4115 34.9109 35.3025 34.9281C35.1935 34.9453 35.0906 34.9897 35.0034 35.0572C33.164 36.4845 30.9003 37.256 28.5721 37.2491C25.7699 37.2456 23.0835 36.1304 21.1026 34.1483C19.1218 32.1662 18.0082 29.4792 18.0065 26.6769C18.0065 26.585 18.0065 26.4932 18.0065 26.4013C19.9709 25.5722 21.6769 24.2313 22.9466 22.5183C24.2163 20.8054 25.0032 18.7832 25.2253 16.6625C27.2053 16.0024 29.3366 15.9439 31.3499 16.4945C33.3632 17.045 35.1681 18.1798 36.5368 19.7556C37.9054 21.3314 38.7764 23.2775 39.0396 25.348C39.3028 27.4186 38.9464 29.5207 38.0156 31.3888C37.9813 31.4698 37.9636 31.5568 37.9636 31.6447C37.9636 31.7327 37.9813 31.8197 38.0156 31.9007L39.584 36.35L35.6268 34.9588Z" fill="white"/>
<path d="M28.5719 21.9123C27.7834 21.9123 27.0268 22.2242 26.4674 22.7799C25.908 23.3356 25.5911 24.0901 25.5859 24.8786C25.5859 25.0526 25.6551 25.2195 25.7781 25.3426C25.9012 25.4657 26.0681 25.5348 26.2422 25.5348C26.4162 25.5348 26.5832 25.4657 26.7062 25.3426C26.8293 25.2195 26.8984 25.0526 26.8984 24.8786C26.8997 24.5479 26.999 24.225 27.1836 23.9506C27.3683 23.6763 27.6301 23.4628 27.936 23.3372C28.2419 23.2115 28.5782 23.1793 28.9024 23.2446C29.2265 23.31 29.5241 23.4698 29.7575 23.7041C29.9909 23.9384 30.1496 24.2366 30.2136 24.5611C30.2777 24.8855 30.2441 25.2216 30.1173 25.527C29.9904 25.8324 29.776 26.0934 29.5009 26.277C29.2259 26.4606 28.9026 26.5586 28.5719 26.5586C28.3978 26.5586 28.2309 26.6277 28.1078 26.7508C27.9848 26.8738 27.9156 27.0408 27.9156 27.2148V28.3042C27.9156 28.4782 27.9848 28.6452 28.1078 28.7682C28.2309 28.8913 28.3978 28.9604 28.5719 28.9604C28.7459 28.9604 28.9128 28.8913 29.0359 28.7682C29.159 28.6452 29.2281 28.4782 29.2281 28.3042V27.8186C29.9527 27.6643 30.5941 27.2463 31.0276 26.6456C31.4612 26.045 31.656 25.3046 31.5742 24.5683C31.4924 23.832 31.1398 23.1525 30.5849 22.6616C30.0301 22.1708 29.3126 21.9037 28.5719 21.9123Z" fill="white"/>
<path d="M13.4078 10.6777C12.617 10.6777 11.8585 10.9914 11.2988 11.55C10.739 12.1085 10.4236 12.8663 10.4219 13.6571C10.4219 13.8312 10.491 13.9981 10.6141 14.1211C10.7372 14.2442 10.9041 14.3134 11.0781 14.3134C11.2522 14.3134 11.4191 14.2442 11.5422 14.1211C11.6652 13.9981 11.7344 13.8312 11.7344 13.6571C11.7383 13.327 11.8397 13.0054 12.0259 12.7328C12.2121 12.4602 12.4748 12.2488 12.7809 12.1252C13.087 12.0015 13.4229 11.9712 13.7462 12.038C14.0695 12.1047 14.3658 12.2656 14.5979 12.5004C14.83 12.7352 14.9874 13.0334 15.0504 13.3575C15.1134 13.6816 15.0791 14.017 14.9519 14.3217C14.8247 14.6263 14.6102 14.8865 14.3354 15.0695C14.0607 15.2525 13.7379 15.3502 13.4078 15.3502C13.2338 15.3502 13.0668 15.4194 12.9438 15.5424C12.8207 15.6655 12.7516 15.8324 12.7516 16.0065V17.0959C12.7516 17.2699 12.8207 17.4368 12.9438 17.5599C13.0668 17.683 13.2338 17.7521 13.4078 17.7521C13.5819 17.7521 13.7488 17.683 13.8719 17.5599C13.9949 17.4368 14.0641 17.2699 14.0641 17.0959V16.5905C14.7886 16.4363 15.43 16.0183 15.8636 15.4176C16.2971 14.8169 16.4919 14.0766 16.4101 13.3403C16.3283 12.604 15.9757 11.9245 15.4209 11.4336C14.866 10.9428 14.1486 10.6757 13.4078 10.6843V10.6777Z" fill="white"/>
<path d="M12.9403 19.0457C12.8191 19.1679 12.7507 19.3329 12.75 19.5051C12.75 19.6791 12.8191 19.846 12.9422 19.9691C13.0653 20.0922 13.2322 20.1613 13.4062 20.1613C13.5803 20.1613 13.7472 20.0922 13.8703 19.9691C13.9934 19.846 14.0625 19.6791 14.0625 19.5051C14.0618 19.3329 13.9934 19.1679 13.8722 19.0457C13.8112 18.9842 13.7386 18.9353 13.6586 18.902C13.5787 18.8687 13.4929 18.8516 13.4062 18.8516C13.3196 18.8516 13.2338 18.8687 13.1539 18.902C13.0739 18.9353 13.0013 18.9842 12.9403 19.0457Z" fill="white"/>
<path d="M29.0363 30.2664C28.9753 30.2049 28.9027 30.1561 28.8227 30.1227C28.7427 30.0894 28.657 30.0723 28.5703 30.0723C28.4837 30.0723 28.3979 30.0894 28.3179 30.1227C28.238 30.1561 28.1654 30.2049 28.1044 30.2664C28.043 30.3275 27.9959 30.4014 27.9666 30.4829C27.9329 30.5618 27.9151 30.6466 27.9141 30.7323C27.9133 30.8627 27.9514 30.9903 28.0234 31.0989C28.0955 31.2075 28.1983 31.2922 28.3187 31.3422C28.439 31.3922 28.5716 31.4052 28.6994 31.3796C28.8272 31.3539 28.9445 31.2908 29.0363 31.1983C29.0971 31.1369 29.1452 31.0642 29.1779 30.9843C29.2105 30.9043 29.2271 30.8187 29.2266 30.7323C29.2288 30.6462 29.2108 30.5608 29.1741 30.4829C29.1383 30.4047 29.092 30.3319 29.0363 30.2664Z" fill="white"/>
</svg>
