<svg width="42" height="42" viewBox="0 0 42 42" fill="none" xmlns="http://www.w3.org/2000/svg">
<path d="M33.4639 24.2883C35.7354 26.5597 35.4904 30.3905 32.7324 32.3278C30.9772 33.5598 28.5254 33.5598 26.7702 32.3278C24.0104 30.3923 23.7672 26.5597 26.0387 24.2883C28.0897 22.2372 31.4147 22.2372 33.4639 24.2883" stroke="white" stroke-width="2" stroke-linecap="round" stroke-linejoin="round"/>
<path d="M36.7509 35.0009L33.4609 31.7109" stroke="white" stroke-width="2" stroke-linecap="round" stroke-linejoin="round"/>
<path d="M12.25 22.75H19.25" stroke="white" stroke-width="2" stroke-linecap="round" stroke-linejoin="round"/>
<path d="M12.25 15.75H26.25" stroke="white" stroke-width="2" stroke-linecap="round" stroke-linejoin="round"/>
<path d="M33.25 17.5V12.25C33.25 9.35025 30.8998 7 28 7H10.5C7.60025 7 5.25 9.35025 5.25 12.25V28C5.25 30.8998 7.60025 33.25 10.5 33.25H19.25" stroke="white" stroke-width="2" stroke-linecap="round" stroke-linejoin="round"/>
</svg>
