<svg width="42" height="42" viewBox="0 0 42 42" fill="none" xmlns="http://www.w3.org/2000/svg">
<path fill-rule="evenodd" clip-rule="evenodd" d="M31.5 36.75H10.5C7.6125 36.75 5.25 34.3875 5.25 31.5V10.5C5.25 7.6125 7.6125 5.25 10.5 5.25H31.5C34.3875 5.25 36.75 7.6125 36.75 10.5V31.5C36.75 34.3875 34.3875 36.75 31.5 36.75Z" stroke="#2463D8" stroke-width="2" stroke-linecap="round" stroke-linejoin="round"/>
<path d="M21.0039 19.7015C21.0039 15.5855 23.8617 12.25 27.3862 12.25C28.9034 12.25 30.1337 13.4803 30.1337 14.9975C30.1337 18.312 26.0439 21 21.0004 21C15.9569 21 11.8672 18.3138 11.8672 14.9975C11.8672 13.4803 13.0974 12.25 14.6164 12.25C18.1409 12.25 20.9987 15.5855 20.9987 19.7015" stroke="#2463D8" stroke-width="2" stroke-linecap="round" stroke-linejoin="round"/>
<path d="M14 27.7452C17.864 27.7452 20.9965 24.0877 20.9965 19.5762L21.0035 19.6007C21.0035 24.1122 24.136 27.7697 28 27.7697" stroke="#2463D8" stroke-width="2" stroke-linecap="round" stroke-linejoin="round"/>
<path d="M21 5.25V36.75" stroke="#2463D8" stroke-width="2" stroke-linecap="round" stroke-linejoin="round"/>
<path d="M36.75 21H5.25" stroke="#2463D8" stroke-width="2" stroke-linecap="round" stroke-linejoin="round"/>
</svg>
