<svg width="42" height="42" viewBox="0 0 42 42" fill="none" xmlns="http://www.w3.org/2000/svg">
<path d="M15.75 28H11.375C7.99226 28 5.25 25.2577 5.25 21.875V11.375C5.25 7.99226 7.99226 5.25 11.375 5.25H28.875C32.2577 5.25 35 7.99226 35 11.375V15.75" stroke="#2463D8" stroke-width="2" stroke-linecap="round" stroke-linejoin="round"/>
<path d="M11.375 12.6875L18.7331 15.8957C19.6217 16.2832 20.6313 16.2847 21.5211 15.8999L28.875 12.7201" stroke="#2463D8" stroke-width="2" stroke-linecap="round" stroke-linejoin="round"/>
<path fill-rule="evenodd" clip-rule="evenodd" d="M26.2499 29.7496L25.2254 28.725C24.7612 28.2608 24.1316 28 23.4752 28C22.8187 28 22.1892 28.2608 21.725 28.725V28.725C20.8908 29.5592 20.7613 30.8663 21.4156 31.8479L24.8106 36.9413C25.4598 37.9151 26.5527 38.5 27.7231 38.5H34.3662C36.1314 38.5 37.6203 37.1855 37.8392 35.434L38.4726 30.3645C38.7059 28.4969 37.4205 26.7792 35.5629 26.4763L31.4999 25.8137V21.875C31.4999 20.4253 30.3247 19.25 28.8749 19.25V19.25C27.4252 19.25 26.2499 20.4253 26.2499 21.875V29.7496Z" stroke="#2463D8" stroke-width="2" stroke-linecap="round" stroke-linejoin="round"/>
</svg>
