<svg width="42" height="42" viewBox="0 0 42 42" fill="none" xmlns="http://www.w3.org/2000/svg">
<path d="M26.25 5.25V8.75" stroke="#2463D8" stroke-width="2" stroke-linecap="round" stroke-linejoin="round"/>
<path d="M12.25 5.25V8.75" stroke="#2463D8" stroke-width="2" stroke-linecap="round" stroke-linejoin="round"/>
<path d="M5.25 14H33.25" stroke="#2463D8" stroke-width="2" stroke-linecap="round" stroke-linejoin="round"/>
<path d="M33.25 17.5V10.5C33.25 8.56625 31.6838 7 29.75 7H8.75C6.81625 7 5.25 8.56625 5.25 10.5V29.75C5.25 31.6838 6.81625 33.25 8.75 33.25H19.25" stroke="#2463D8" stroke-width="2" stroke-linecap="round" stroke-linejoin="round"/>
<path d="M12.2483 18.8125C12.0068 18.8125 11.8108 19.0085 11.8125 19.25C11.8125 19.4915 12.0085 19.6875 12.25 19.6875C12.4915 19.6875 12.6875 19.4915 12.6875 19.25C12.6875 19.0085 12.4915 18.8125 12.2483 18.8125" stroke="#2463D8" stroke-width="2" stroke-linecap="round" stroke-linejoin="round"/>
<path d="M12.2483 25.8125C12.0068 25.8125 11.8108 26.0085 11.8125 26.25C11.8125 26.4915 12.0085 26.6875 12.25 26.6875C12.4915 26.6875 12.6875 26.4915 12.6875 26.25C12.6875 26.0085 12.4915 25.8125 12.2483 25.8125" stroke="#2463D8" stroke-width="2" stroke-linecap="round" stroke-linejoin="round"/>
<path d="M18.8125 19.2517C18.8125 19.4932 19.0085 19.6892 19.25 19.6875C19.4915 19.6875 19.6875 19.4915 19.6875 19.25C19.6875 19.0085 19.4915 18.8125 19.25 18.8125C19.0085 18.8125 18.8125 19.0085 18.8125 19.2517" stroke="#2463D8" stroke-width="2" stroke-linecap="round" stroke-linejoin="round"/>
<path fill-rule="evenodd" clip-rule="evenodd" d="M30.2627 36.2377L37.9873 28.5132C38.6715 27.8289 38.6715 26.7212 37.9873 26.0387L35.2117 23.2632C34.5275 22.5789 33.4198 22.5789 32.7373 23.2632L25.0128 30.9877C24.6838 31.3167 24.5 31.7612 24.5 32.2249V36.7504H29.0255C29.4892 36.7504 29.9337 36.5667 30.2627 36.2377V36.2377Z" stroke="#2463D8" stroke-width="2" stroke-linecap="round" stroke-linejoin="round"/>
</svg>
