<svg width="24" height="24" viewBox="0 0 24 24" fill="none" xmlns="http://www.w3.org/2000/svg">
<path d="M21.25 8.8138V6.7578C21.25 5.94014 20.9252 5.15597 20.347 4.57779C19.7688 3.99962 18.9847 3.6748 18.167 3.6748H15.083M15.083 22.1748H18.167C18.9847 22.1748 19.7688 21.85 20.347 21.2718C20.9252 20.6936 21.25 19.9095 21.25 19.0918V17.0358M2.75 17.0358V19.0918C2.75 19.9095 3.07482 20.6936 3.65299 21.2718C4.23116 21.85 5.01534 22.1748 5.833 22.1748H8.917M8.917 3.6748H5.833C5.42813 3.6748 5.02723 3.75455 4.65319 3.90948C4.27914 4.06442 3.93927 4.29151 3.65299 4.57779C3.36671 4.86408 3.13961 5.20394 2.98468 5.57799C2.82974 5.95204 2.75 6.35294 2.75 6.7578V8.8138" stroke="white" stroke-width="1.5" stroke-linecap="round" stroke-linejoin="round"/>
<path d="M3 12.5029H21" stroke="white" stroke-width="1.5" stroke-linecap="round" stroke-linejoin="round"/>
<path d="M18.1772 22.1748C18.1772 19.2548 14.9212 16.8808 12.0002 16.8808C9.07922 16.8808 5.82422 19.2538 5.82422 22.1748M12.0002 14.2338C12.4638 14.2338 12.9228 14.1425 13.3511 13.9651C13.7794 13.7877 14.1685 13.5277 14.4963 13.1999C14.8241 12.8721 15.0841 12.483 15.2615 12.0547C15.4389 11.6264 15.5302 11.1674 15.5302 10.7038C15.5302 10.2403 15.4389 9.78124 15.2615 9.35296C15.0841 8.92468 14.8241 8.53553 14.4963 8.20774C14.1685 7.87995 13.7794 7.61993 13.3511 7.44253C12.9228 7.26513 12.4638 7.17383 12.0002 7.17383C11.064 7.17383 10.1661 7.54574 9.50413 8.20774C8.84213 8.86975 8.47022 9.76761 8.47022 10.7038C8.47022 11.64 8.84213 12.5379 9.50413 13.1999C10.1661 13.8619 11.064 14.2338 12.0002 14.2338Z" stroke="white" stroke-width="1.5" stroke-linecap="round" stroke-linejoin="round"/>
</svg>
