<svg width="24" height="24" viewBox="0 0 24 24" fill="none" xmlns="http://www.w3.org/2000/svg">
<path fill-rule="evenodd" clip-rule="evenodd" d="M21.5029 21.0042H15.0002C14.724 21.0042 14.5 20.7802 14.5 20.504V20.0978C14.5033 18.9422 15.4393 18.0062 16.5949 18.0029H19.9083C21.0639 18.0062 21.9998 18.9422 22.0031 20.0978V20.504C22.0031 20.7802 21.7792 21.0042 21.5029 21.0042Z" stroke="white" stroke-width="1.5" stroke-linecap="round" stroke-linejoin="round"/>
<path fill-rule="evenodd" clip-rule="evenodd" d="M18.2527 15.5017C17.1484 15.4995 16.2548 14.6031 16.2559 13.4988C16.257 12.3946 17.1524 11.5 18.2567 11.5C19.3609 11.5 20.2564 12.3946 20.2575 13.4988C20.2586 14.6031 19.3649 15.4995 18.2607 15.5017H18.2527Z" stroke="white" stroke-width="1.5" stroke-linecap="round" stroke-linejoin="round"/>
<path d="M8.92609 16.002L8.42589 20.0036" stroke="white" stroke-width="1.5" stroke-linecap="round" stroke-linejoin="round"/>
<path d="M20.4314 8.99859V5.42511C20.4314 4.0836 19.3439 2.99609 18.0023 2.99609H5.42511C4.0836 2.99609 2.99609 4.0836 2.99609 5.42511V13.5725C2.99609 14.914 4.0836 16.0015 5.42511 16.0015H13.0003" stroke="white" stroke-width="1.5" stroke-linecap="round" stroke-linejoin="round"/>
<path d="M6.92578 20.0031H10.9995" stroke="white" stroke-width="1.5" stroke-linecap="round" stroke-linejoin="round"/>
<path d="M5.99609 8.99898H7.99673L9.49765 11.2499L11.4983 6.74805L12.9992 8.99898H14.9998" stroke="white" stroke-width="1.5" stroke-linecap="round" stroke-linejoin="round"/>
</svg>
