<svg width="24" height="24" viewBox="0 0 24 24" fill="none" xmlns="http://www.w3.org/2000/svg">
<path fill-rule="evenodd" clip-rule="evenodd" d="M11.467 18.934V18.934C7.343 18.934 4 15.591 4 11.467V11.467C4 7.343 7.343 4 11.467 4V4C15.591 4 18.934 7.343 18.934 11.467V11.467C18.934 15.591 15.591 18.934 11.467 18.934Z" stroke="#040A16" stroke-width="1.5" stroke-linecap="round" stroke-linejoin="round"/>
<path d="M20 20L16.75 16.75" stroke="#040A16" stroke-width="1.5" stroke-linecap="round" stroke-linejoin="round"/>
<path d="M9.36719 13.5672L13.5672 9.36719" stroke="#040A16" stroke-width="1.5" stroke-linecap="round" stroke-linejoin="round"/>
<path d="M13.7574 13.4203C13.8514 13.5143 13.8514 13.6663 13.7574 13.7593C13.6634 13.8533 13.5114 13.8533 13.4184 13.7593C13.3244 13.6653 13.3244 13.5133 13.4184 13.4203C13.5114 13.3263 13.6634 13.3263 13.7574 13.4203" stroke="#040A16" stroke-width="1.5" stroke-linecap="round" stroke-linejoin="round"/>
<path d="M9.51697 9.17504C9.61097 9.26904 9.61097 9.42104 9.51697 9.51404C9.42297 9.60804 9.27097 9.60804 9.17797 9.51404C9.08497 9.42004 9.08397 9.26804 9.17797 9.17504C9.27197 9.08204 9.42397 9.08104 9.51697 9.17504" stroke="#040A16" stroke-width="1.5" stroke-linecap="round" stroke-linejoin="round"/>
</svg>
