<svg width="24" height="24" viewBox="0 0 24 24" fill="none" xmlns="http://www.w3.org/2000/svg">
<g clip-path="url(#clip0_3328_3055)">
<path d="M16.0569 20.6939C15.7393 21.4952 15.1913 22.1844 14.4822 22.6745C13.7731 23.1645 12.9346 23.4334 12.0728 23.4471C11.211 23.4609 10.3644 23.2189 9.63997 22.7518C8.91558 22.2847 8.34587 21.6134 8.00282 20.8226C7.65976 20.0319 7.55876 19.1572 7.71256 18.3091C7.86635 17.461 8.26806 16.6774 8.86692 16.0575C9.46579 15.4376 10.2349 15.009 11.0772 14.826C11.9195 14.643 12.7972 14.7137 13.5993 15.0292" stroke="#040A16" stroke-width="1.2" stroke-linecap="round" stroke-linejoin="round"/>
<path d="M9.36133 1.34011C10.0922 0.785741 10.9793 0.475798 11.8964 0.454322C12.8135 0.432845 13.7141 0.700926 14.4702 1.22048C15.2262 1.74003 15.7993 2.48463 16.1081 3.34849C16.4168 4.21235 16.4455 5.15154 16.19 6.03261" stroke="#040A16" stroke-width="1.2" stroke-linecap="round" stroke-linejoin="round"/>
<path d="M3.70898 11.3804C3.8077 10.6346 4.09759 9.92693 4.55051 9.32621C5.00344 8.72548 5.60401 8.25209 6.2939 7.95198C6.98379 7.65188 7.73956 7.53528 8.48782 7.61348C9.23608 7.69169 9.9514 7.96206 10.5643 8.39833" stroke="#040A16" stroke-width="1.2" stroke-linecap="round" stroke-linejoin="round"/>
<path d="M11.6425 12.5338C11.5628 11.9417 11.6056 11.3396 11.7682 10.7647C11.9308 10.1899 12.2098 9.65456 12.5878 9.19194C12.9658 8.72933 13.4348 8.34929 13.9657 8.07538C14.4967 7.80147 15.0782 7.63953 15.6742 7.5996C16.2703 7.55967 16.8683 7.6426 17.431 7.84324C17.9937 8.04389 18.5092 8.35798 18.9455 8.76604C19.3818 9.17411 19.7297 9.66744 19.9675 10.2155C20.2054 10.7635 20.3281 11.3545 20.3281 11.9519" stroke="#040A16" stroke-width="1.2" stroke-linecap="round" stroke-linejoin="round"/>
<path d="M17.5234 2.11303C18.4207 1.94119 19.3492 2.05537 20.1781 2.43944C21.007 2.82351 21.6944 3.4581 22.1434 4.25372C22.5924 5.04933 22.7803 5.96581 22.6806 6.87391C22.5809 7.782 22.1986 8.63588 21.5877 9.31513" stroke="#040A16" stroke-width="1.2" stroke-linecap="round" stroke-linejoin="round"/>
<path d="M2.55809 9.47318C2.06674 8.97781 1.70139 8.37181 1.49269 7.70604C1.28399 7.04027 1.23803 6.33415 1.35868 5.64694C1.47933 4.95974 1.76305 4.31149 2.18605 3.75662C2.60905 3.20175 3.15897 2.75644 3.78967 2.45807C4.42037 2.15969 5.11344 2.01695 5.81071 2.04184C6.50799 2.06672 7.18912 2.2585 7.79694 2.60107C8.40477 2.94365 8.92155 3.42703 9.30392 4.01064C9.68629 4.59425 9.92308 5.26107 9.99444 5.95513" stroke="#040A16" stroke-width="1.2" stroke-linecap="round" stroke-linejoin="round"/>
<path d="M7.89891 20.634C7.28603 21.2284 6.5122 21.6299 5.67333 21.7887C4.83446 21.9474 3.96743 21.8566 3.17972 21.5273C2.39201 21.198 1.71824 20.6448 1.24193 19.9363C0.765622 19.2277 0.507712 18.395 0.50017 17.5412C0.492628 16.6875 0.735785 15.8503 1.1995 15.1335C1.66322 14.4166 2.32711 13.8516 3.10888 13.5085C3.89065 13.1653 4.75594 13.0591 5.59748 13.2031C6.43902 13.347 7.21983 13.7347 7.84311 14.3182" stroke="#040A16" stroke-width="1.2" stroke-linecap="round" stroke-linejoin="round"/>
<path d="M19.1374 21.8646C21.5465 21.8646 23.4994 19.9117 23.4994 17.5026C23.4994 15.0936 21.5465 13.1406 19.1374 13.1406C16.7283 13.1406 14.7754 15.0936 14.7754 17.5026C14.7754 19.9117 16.7283 21.8646 19.1374 21.8646Z" stroke="#040A16" stroke-width="1.2" stroke-linecap="round" stroke-linejoin="round"/>
<path d="M18.8452 4.12493C18.5011 4.01163 18.1273 4.02864 17.7949 4.17274" stroke="#040A16" stroke-width="1.2" stroke-linecap="round" stroke-linejoin="round"/>
<path d="M16.8877 17.5039C16.8877 16.9072 17.1247 16.3349 17.5467 15.9129C17.9687 15.491 18.541 15.2539 19.1377 15.2539" stroke="#040A16" stroke-width="1.2" stroke-linecap="round" stroke-linejoin="round"/>
<path d="M9.8877 19.2539C9.8877 18.6572 10.1247 18.0849 10.5467 17.6629C10.9687 17.241 11.541 17.0039 12.1377 17.0039" stroke="#040A16" stroke-width="1.2" stroke-linecap="round" stroke-linejoin="round"/>
<path d="M2.6377 17.5039C2.6377 16.9072 2.87475 16.3349 3.29671 15.9129C3.71866 15.491 4.29096 15.2539 4.8877 15.2539" stroke="#040A16" stroke-width="1.2" stroke-linecap="round" stroke-linejoin="round"/>
<path d="M5.7168 11.4122C5.84679 10.9359 6.12976 10.5156 6.52213 10.2159C6.91449 9.91628 7.39448 9.75394 7.88817 9.75391" stroke="#040A16" stroke-width="1.2" stroke-linecap="round" stroke-linejoin="round"/>
<path d="M13.6377 12.0039C13.6377 11.4072 13.8747 10.8349 14.2967 10.4129C14.7187 9.99096 15.291 9.75391 15.8877 9.75391" stroke="#040A16" stroke-width="1.2" stroke-linecap="round" stroke-linejoin="round"/>
<path d="M3.32812 6.30078C3.32813 5.70404 3.56518 5.13175 3.98713 4.70979C4.40909 4.28783 4.98139 4.05078 5.57812 4.05078" stroke="#040A16" stroke-width="1.2" stroke-linecap="round" stroke-linejoin="round"/>
<path d="M10.6387 3.07178C11.0426 2.73443 11.5523 2.54998 12.0786 2.55078" stroke="#040A16" stroke-width="1.2" stroke-linecap="round" stroke-linejoin="round"/>
</g>
<defs>
<clipPath id="clip0_3328_3055">
<rect width="24" height="24" fill="white"/>
</clipPath>
</defs>
</svg>
